<?xml version="1.0" encoding="UTF-8" standalone="no"?>
<svg width="42px" height="42px" viewBox="0 0 42 42" version="1.1" xmlns="http://www.w3.org/2000/svg" xmlns:xlink="http://www.w3.org/1999/xlink">
    <!-- Generator: Sketch 44.1 (41455) - http://www.bohemiancoding.com/sketch -->
    <title>Experiment Icon</title>
    <desc>Created with Sketch.</desc>
    <defs></defs>
    <g id="Lab-Home-V2" stroke="none" stroke-width="1" fill="none" fill-rule="evenodd">
        <g id="Home-Page" transform="translate(-1086.000000, -2006.000000)">
            <g id="Developer-Leaderboard" transform="translate(181.000000, 1857.000000)">
                <g id="Experiment-Icon" transform="translate(906.000000, 150.000000)">
                    <path d="M16.5348596,7.62310549 C15.1828903,7.62310549 14.1580696,8.6717063 14.1580696,9.91533175 L14.1580696,15.0827981 L8.82223842,24.031957 C8.16132464,25.147855 8.17455762,26.6386948 8.88619782,27.7305581 C9.5897512,28.8086873 10.854971,29.5977131 12.218703,29.5977131 L26.4360685,29.5977131 C27.8005357,29.5977131 29.085605,28.8086873 29.7891584,27.7305581 C30.5015337,26.6373214 30.4691864,25.2062251 29.8082727,24.0910138 L24.4503865,15.0827981 L24.4503865,9.91533175 C24.4503865,8.6717063 23.4755571,7.62310549 22.1199119,7.62310549 L16.5348596,7.62310549 Z M22.1199119,8.99651847 C22.6867245,8.99651847 22.9800555,9.39686835 22.9800555,9.91533175 L22.9800555,15.4240912 L28.5423177,24.6726541 C28.9598917,25.377215 28.9819466,26.3283035 28.5334957,27.0170701 C28.0843096,27.70515 27.313121,28.2243001 26.4360685,28.2243001 L12.218703,28.2243001 C11.3416506,28.2243001 10.5270872,27.70515 10.0779011,27.0170701 C9.62871497,26.3283035 9.67135457,25.4245977 10.0889286,24.7193502 L15.6284006,15.4240912 L15.6284006,9.91533175 C15.6284006,9.39686835 15.9673119,8.99651847 16.5348596,8.99651847 L22.24489,8.99651847" id="Fill-1" fill="#9F9BFF"></path>
                    <path d="M21.2538924,21.6213947 C21.2538924,22.086201 20.8258495,22.4633205 20.2993716,22.4633205 C19.7728937,22.4633205 19.3448508,22.086201 19.3448508,21.6213947 C19.3448508,21.1572476 19.772148,20.7794689 20.2993716,20.7794689 C20.8265952,20.7794689 21.2538924,21.1565883 21.2538924,21.6213947 Z M18.5704213,16.5609393 C18.5704213,17.0257457 18.1431241,17.4028651 17.6159005,17.4028651 C17.0886769,17.4028651 16.6613797,17.0257457 16.6613797,16.5609393 C16.6613797,16.096133 17.0886769,15.7190135 17.6159005,15.7190135 C18.1431241,15.7190135 18.5704213,16.096133 18.5704213,16.5609393 Z M19.1625224,20.0213401 C19.1625224,20.7749197 18.4697492,21.3854313 17.6159005,21.3854313 C16.7613061,21.3854313 16.0692785,20.7749197 16.0692785,20.0213401 C16.0692785,19.2677604 16.7613061,18.6572489 17.6159005,18.6572489 C18.4697492,18.6572489 19.1625224,19.2684197 19.1625224,20.0213401 Z M25.5464022,26.1280382 L13.1063118,26.1280382 C12.7155548,26.1280382 12.3523895,25.9520052 12.1540282,25.6540017 C11.9556668,25.3559982 11.9504468,24.9920647 12.1406052,24.6894461 L13.6357725,22.3192635 C13.8490483,21.9803834 14.269634,21.78589 14.7066255,21.8228107 C16.6924762,21.9896136 18.9244143,23.4882019 20.9192135,23.4216127 C21.9870837,23.3853512 22.9788904,23.041856 23.9229711,22.5829834 C24.4561605,22.3238786 25.1273079,22.4939779 25.4233585,22.9633993 L26.5128545,24.6894461 C26.7022672,24.9914054 26.6970472,25.3559982 26.4986858,25.6540017 C26.3003245,25.9520052 25.9371591,26.1280382 25.5464022,26.1280382 Z" id="Combined-Shape" fill="#9F9BFF"></path>
                    <circle id="Oval" stroke="#9F9BFF" stroke-width="2" cx="20" cy="20" r="20"></circle>
                </g>
            </g>
        </g>
    </g>
</svg>