<?xml version="1.0" standalone="no"?>
<!DOCTYPE svg PUBLIC "-//W3C//DTD SVG 20010904//EN"
 "http://www.w3.org/TR/2001/REC-SVG-20010904/DTD/svg10.dtd">
<svg version="1.0" xmlns="http://www.w3.org/2000/svg"
 width="260.000000pt" height="260.000000pt" viewBox="0 0 260.000000 260.000000"
 preserveAspectRatio="xMidYMid meet">
<metadata>
Created by potrace 1.11, written by Peter Selinger 2001-2013
</metadata>
<g transform="translate(0.000000,260.000000) scale(0.100000,-0.100000)"
fill="#000000" stroke="none">
<path d="M519 2081 c-37 -38 -39 -82 -4 -116 l24 -25 619 0 c694 0 656 -4 669
72 5 32 1 41 -25 68 l-30 30 -612 0 -612 0 -29 -29z"/>
<path d="M519 1791 c-36 -37 -38 -79 -5 -118 l24 -28 767 0 767 0 24 28 c33
39 31 81 -5 118 l-29 29 -757 0 -757 0 -29 -29z"/>
<path d="M519 1501 c-36 -37 -38 -79 -5 -118 l24 -28 622 0 622 0 24 28 c31
36 31 78 0 114 l-24 28 -617 3 -616 2 -30 -29z"/>
<path d="M544 1230 c-58 -23 -70 -95 -25 -141 l29 -29 459 0 c349 0 464 3 483
13 59 30 63 114 7 148 -30 18 -55 19 -482 18 -247 0 -460 -4 -471 -9z"/>
<path d="M553 943 c-31 -6 -63 -50 -63 -85 0 -19 10 -40 29 -59 l29 -29 612 0
612 0 29 29 c31 31 35 53 19 96 -21 55 -27 55 -662 54 -321 -1 -593 -4 -605
-6z"/>
<path d="M515 625 c-35 -34 -33 -78 4 -116 l29 -29 757 0 757 0 29 29 c37 38
39 82 4 116 l-24 25 -766 0 -766 0 -24 -25z"/>
</g>
</svg>
