<svg xmlns="http://www.w3.org/2000/svg" width="342" height="172" viewBox="0 0 342 172">
  <g fill="none" fill-rule="evenodd" transform="translate(62 2)">
    <path fill="#F2F2F6" d="M108.8234,25.033 L103.8624,20.726 L98.2294,29.006 L89.1804,36.068 L93.5214,51.886 C93.5214,51.886 80.4994,64.76 79.6164,71.676 C78.7334,78.591 87.9294,82.711 87.9294,82.711 C87.9294,82.711 98.5234,97.866 93.2264,98.896 C80.6464,104.267 91.3144,127.22 91.3144,127.22 C91.3144,127.22 86.0904,129.207 81.5294,131.34 C76.9684,133.474 90.6514,137.226 90.6514,137.226 L100.3634,132.591 L123.9784,133.694 C123.9784,133.694 123.0224,138.403 124.1254,141.861 C125.2294,145.318 141.9294,140.904 141.9294,140.904 C141.9294,140.904 135.7494,133.989 136.4854,132.664 C149.5804,111.771 140.0194,87.153 140.0194,87.153 C140.0194,87.153 146.7854,74.913 145.9754,69.027 C144.5784,62.332 128.6874,35.848 128.6874,35.848 C128.6874,35.848 131.9244,30.256 127.2894,23.856 C125.2294,21.649 118.8284,27.681 118.8284,27.681 L108.8234,25.033 Z"/>
    <path stroke="#81879D" stroke-width="2.396" d="M87.2928,81.1174 C77.4658,78.5974 78.9438,70.0524 81.6308,65.6544 C84.3188,61.2574 90.8208,54.4094 94.7058,52.4624 C92.4578,50.8814 89.4488,41.9574 88.9598,38.0484 C88.4718,34.1394 98.2438,29.4974 98.2438,29.4974 C98.2438,29.4974 100.1978,22.1684 103.8628,20.9474 C107.5268,19.7254 107.0388,25.8334 107.0388,25.8334 C110.7028,24.6114 117.0548,26.5664 118.5208,28.2764 C119.9868,29.9864 122.9188,22.6574 127.5598,23.8784 C132.9348,31.2074 128.0488,34.6284 129.5148,37.5594 C134.4518,44.7994 135.8798,49.0344 136.8438,50.5074 C138.9598,53.7394 146.1278,62.4784 146.3718,70.0524 C146.8598,80.0684 140.0198,85.1994 140.0198,87.1534 C140.0198,89.1074 143.6838,98.6354 143.6838,107.4304 C143.9288,124.7764 136.1108,133.3264 136.1108,133.3264 C136.1108,133.3264 144.4168,139.1904 142.2188,141.1444 C140.0198,143.0994 127.5598,144.3204 124.8728,142.6104 C122.1858,140.9004 124.3838,134.0594 124.3838,134.0594 L99.7098,132.8384 C99.7098,132.8384 95.3118,136.5024 91.8918,137.2354 C88.4718,137.9684 81.3868,136.2584 80.8978,133.3264 C80.4098,130.3954 91.4028,127.7074 91.4028,127.7074 C91.4028,127.7074 80.8978,101.8114 92.1358,99.6134 C97.2668,96.9254 87.2928,81.1174 87.2928,81.1174 Z"/>
    <path fill="#81879D" d="M115.345,35.9717 C115.345,38.0627 114.087,39.7587 112.536,39.7587 C110.984,39.7587 109.726,38.0627 109.726,35.9717 C109.726,33.8807 110.984,32.1847 112.536,32.1847 C114.087,32.1847 115.345,33.8807 115.345,35.9717"/>
    <path stroke="#81879D" stroke-width="2.396" d="M85.7324 80.5134C86.4654 80.7574 93.4644 83.5204 104.3474 80.5134M130.6311 88.2984C121.3081 90.0624 115.7651 87.5424 111.3561 85.2744 106.9461 83.0074 96.6621 75.4344 94.7081 73.9684 92.7531 72.5024 97.9951 67.4274 100.7661 68.6874 103.5381 69.9464 123.4501 71.8034 123.4501 71.8034"/>
    <path stroke="#81879D" stroke-width="2.396" d="M111.3294,70.8618 C111.3294,70.8618 126.2104,62.3818 129.8754,67.2678 C133.5394,72.1538 126.0954,74.8268 122.6944,71.5518"/>
    <path fill="#81879D" d="M104.4053 57.9352C104.3703 59.3572 103.1633 60.4812 101.7083 60.4452 100.2543 60.4102 99.1033 59.2282 99.1383 57.8062 99.1733 56.3842 100.3803 55.2602 101.8353 55.2952 103.2893 55.3312 104.4403 56.5132 104.4053 57.9352M105.5614 55.4272L113.2844 53.9782C113.2844 53.9782 114.5304 59.6802 112.0354 63.7772 109.0394 63.7062 105.8244 60.0962 105.8244 60.0962 105.8244 60.0962 107.6084 57.6222 105.5614 55.4272M98.3474 55.0442L91.8274 52.1522C91.8274 52.1522 90.0914 60.3272 90.9544 61.1052 92.0924 61.8262 97.8414 59.9642 97.8414 59.9642 97.8414 59.9642 96.2204 56.9182 98.3474 55.0442"/>
    <path stroke="#81879D" stroke-width="1.797" d="M110.2217,57.9364 C113.6237,57.9364 129.3707,58.3144 134.6627,47.2274"/>
    <path stroke="#81879D" stroke-width="1.198" d="M90.3164 40.8027C90.3164 40.8027 94.4734 42.1887 95.9854 41.1807M122.743 133.1247C124.836 133.3277 130.099 132.8237 130.099 132.8237M102.6247 132.6521C102.6247 132.6521 97.6447 131.4331 95.3077 129.6791"/>
    <path fill="#F2F2F6" d="M102.631,155.0313 C102.543,154.6813 102.719,113.1593 102.719,113.1593 C102.719,113.1593 95.848,101.2123 105.171,102.6473 C115.42,104.2243 107.712,112.9833 107.712,112.9833 L107.424,156.0753 L102.631,155.0313 Z"/>
    <path stroke="#81879D" stroke-width="1.198" d="M96.8367,31.2149 C96.8367,31.2149 102.6227,28.0969 107.0007,26.7179"/>
    <path stroke="#81879D" stroke-width="1.797" d="M52.3276 103.5449L52.3276 140.8089C52.3276 141.4249 55.0706 143.0939 56.5336 140.8089L56.5336 103.9109M59.7065 98.0318C59.7065 100.9458 57.3445 103.3078 54.4305 103.3078 51.5165 103.3078 49.1545 100.9458 49.1545 98.0318 49.1545 95.1178 51.5165 92.7558 54.4305 92.7558 57.3445 92.7558 59.7065 95.1178 59.7065 98.0318z"/>
    <path stroke="#81879D" stroke-width="1.797" d="M56.156 135.4222C61.142 135.9662 64.945 138.8282 64.945 142.2782 64.945 146.1152 60.238 149.2272 54.431 149.2272 48.623 149.2272 43.916 146.1152 43.916 142.2782 43.916 139.0582 47.229 136.3502 51.724 135.5612M103.2181 113.723L103.2181 156.076C103.2181 156.692 105.9611 158.361 107.4241 156.076L107.4241 113.247"/>
    <path stroke="#81879D" stroke-width="1.797" d="M110.5969 108.2099C110.5969 111.1239 108.2349 113.4859 105.3209 113.4859 102.4069 113.4859 100.0449 111.1239 100.0449 108.2099 100.0449 105.2959 102.4069 102.9339 105.3209 102.9339 108.2349 102.9339 110.5969 105.2959 110.5969 108.2099zM107.0465 150.6893C112.0325 151.2333 115.8355 154.0953 115.8355 157.5453 115.8355 161.3823 111.1285 164.4943 105.3215 164.4943 99.5135 164.4943 94.8065 161.3823 94.8065 157.5453 94.8065 154.3253 98.1195 151.6173 102.6145 150.8283"/>
    <path stroke="#81879D" stroke-width="2.396" d="M55.8927,103.9552 C55.8927,103.9552 70.2747,132.3442 102.9627,112.9942"/>
    <polyline stroke="#81879D" stroke-width="2.396" points="118.303 26.901 118.303 .339 198.781 9.296 198.781 125.243"/>
    <path stroke="#81879D" stroke-width="1.198" d="M155.1767,3.5354 L155.1767,117.2374"/>
    <path stroke="#81879D" stroke-width="2.396" d="M144.1483,115.4426 L217.8063,129.0916"/>
    <g transform="translate(3 101.397)">
      <path fill="#F2F2F6" d="M25.5616,18.7743 C28.4106,12.0153 27.8726,10.5203 27.9206,8.3943 C27.9686,6.2673 28.5256,4.3723 26.1926,2.0813 C26.1926,2.0813 24.9576,-0.0927 23.1656,0.4723 C21.3736,1.0373 17.9986,1.0343 16.1026,1.3223 C14.2076,1.6093 9.8136,3.6743 9.3966,4.2523 C7.9046,5.3373 6.5626,7.1043 6.5626,7.1043 C6.5626,7.1043 2.1936,6.4183 1.3956,7.6663 C-0.1734,9.6283 1.0176,13.8733 2.8756,14.1113"/>
      <path stroke="#81879D" stroke-width="2.396" d="M25.5616,18.7743 C28.4106,12.0153 27.8726,10.5203 27.9206,8.3943 C27.9686,6.2673 28.5256,4.3723 26.1926,2.0813 C26.1926,2.0813 24.9576,-0.0927 23.1656,0.4723 C21.3736,1.0373 17.9986,1.0343 16.1026,1.3223 C14.2076,1.6093 9.8136,3.6743 9.3966,4.2523 C7.9046,5.3373 6.5626,7.1043 6.5626,7.1043 C6.5626,7.1043 2.1936,6.4183 1.3956,7.6663 C-0.1734,9.6283 1.0176,13.8733 2.8756,14.1113"/>
    </g>
    <path fill="#81879D" d="M16.8239,109.3656 C17.2479,110.4996 18.5339,111.0656 19.6959,110.6316 C20.8569,110.1966 21.4559,108.9256 21.0319,107.7916 C20.6079,106.6586 19.3219,106.0916 18.1599,106.5266 C16.9979,106.9606 16.3999,108.2316 16.8239,109.3656"/>
    <path fill="#F2F2F6" d="M6.9722,114.4842 C6.9722,114.4842 7.0732,118.8302 6.9722,123.4792 C1.7162,130.8572 2.6262,153.2952 2.6262,153.2952 C2.6262,153.2952 -0.8098,155.9232 1.9182,158.6522 C4.6472,161.3812 22.4872,168.1772 22.4872,168.1772 L28.8032,163.8062 L25.0642,161.5832 C25.0642,161.5832 29.1682,157.1362 32.2202,157.3382 C41.7402,157.5402 33.9582,152.9922 33.9582,152.9922 L34.0592,148.4442 L33.9582,139.2462 C33.9582,139.2462 37.6972,137.5282 36.4852,134.4962 C35.2722,131.4642 28.1972,117.4152 28.1972,117.4152 L6.9722,114.4842 Z"/>
    <path stroke="#81879D" stroke-width="1.797" d="M28.3226,102.9344 L28.0916,105.3234"/>
    <path fill="#FFFFFF" d="M22.6381,121.7613 C22.6381,121.7613 18.6961,125.8043 17.8881,128.0273 C17.0791,130.2513 15.7651,140.9643 17.1801,141.5713 C22.3351,144.1993 25.7711,155.9233 23.2441,160.8753 C20.7181,165.8283 31.7341,156.3273 31.7341,156.3273 C31.7341,156.3273 33.2501,148.0393 33.1491,146.1193 C33.0481,144.1993 33.5541,139.6513 33.6551,138.6403 C33.7561,137.6293 35.2721,135.7093 35.2721,135.7093 L28.3991,118.5273 L22.6381,121.7613 Z"/>
    <path stroke="#81879D" stroke-width="2.396" d="M6.5878,115.6257 L6.8918,122.9407 C6.8918,122.9407 0.8018,136.1527 2.0998,152.4187 C2.6458,154.1757 -0.5572,155.4267 0.3658,157.4487 C1.2888,159.4717 7.0028,162.3157 7.0028,162.3157 L17.9518,165.6337 C17.9518,165.6337 21.5648,167.8717 22.4868,168.1777 C23.4088,168.4837 28.3698,165.4247 28.7338,164.0797 C29.0978,162.7347 24.8408,161.4037 24.8408,161.4037 C25.8398,160.8787 32.2198,157.3387 32.2198,157.3387 C32.2198,157.3387 36.1068,157.8337 37.4178,156.5647 C37.9498,154.2487 33.9558,152.5087 33.9558,152.5087 C33.9558,152.5087 34.4678,142.4147 34.0588,138.0117 C35.3898,136.8847 35.8668,136.5587 35.4918,134.3247 C32.9618,123.8847 28.3618,121.5037 28.6308,118.8167"/>
    <g transform="translate(21 127.397)">
      <path fill="#F2F2F6" d="M0.1662,1.858 L3.9552,10.255 C3.9552,10.255 2.8292,17.321 5.1842,15.171 C7.1142,14.075 8.4352,13.588 8.7142,9.066 C8.6112,5.687 6.9252,0.629 6.9252,0.629"/>
      <path stroke="#81879D" stroke-width="1.438" d="M0.1662,1.858 L3.9552,10.255 C3.9552,10.255 2.8292,17.321 5.1842,15.171 C7.1142,14.075 8.4352,13.588 8.7142,9.066 C8.6112,5.687 6.9252,0.629 6.9252,0.629"/>
    </g>
    <path stroke="#81879D" stroke-width="1.258" d="M11.7689,114.7771 C11.7689,114.7771 8.5529,117.6361 4.7569,113.6161"/>
    <path stroke="#81879D" stroke-width="1.198" d="M25.3685,121.1338 C25.3685,121.1338 28.8925,119.1708 29.3885,115.8268"/>
    <path stroke="#81879D" stroke-width="1.438" d="M19.6301,143.0796 C19.6301,143.0796 26.8091,149.0806 22.6111,161.4716"/>
    <path fill="#F2F2F6" d="M94.992,50.1642 C95.072,50.4052 97.18,53.9932 97.18,53.9932 L100.259,52.4692 L97.611,49.2592 L94.992,50.1642 Z"/>
  </g>
</svg>
