<svg xmlns="http://www.w3.org/2000/svg" width="342" height="172" viewBox="0 0 342 172" xmlns:xlink="http://www.w3.org/1999/xlink">
  <defs>
    <polygon id="a" points="0 100.689 239.27 100.689 239.27 0 0 0"/>
  </defs>
  <g fill="none" fill-rule="evenodd" transform="translate(51 36)">
    <path stroke="#81879D" stroke-width="2.057" d="M112.503,36.0044 L112.503,32.6624 C112.503,30.0954 115.871,29.0264 115.871,27.4584 C115.871,25.8904 116.088,24.4644 119.674,24.4644 L119.818,24.4644 C123.403,24.4644 123.621,25.8904 123.621,27.4584 C123.621,29.0264 126.989,30.0954 126.989,32.6624 L126.989,36.0044 L128.37,36.0044 C128.762,36.0044 129.082,36.3254 129.082,36.7174 L129.082,39.4934 C129.082,39.8854 128.762,40.2054 128.37,40.2054 L111.122,40.2054 C110.73,40.2054 110.409,39.8854 110.409,39.4934 L110.409,36.7174 C110.409,36.3254 110.73,36.0044 111.122,36.0044 L112.502,36.0044 L112.503,36.0044 Z"/>
    <path stroke="#81879D" stroke-width="1.469" d="M119.9559,24.3944 L119.9559,7.5384 C119.9559,3.4794 118.4909,0.7344 113.1529,0.7344 L58.0889,0.7344 C53.0159,0.7344 49.5019,3.4404 49.5019,9.3224 L49.5019,17.6564"/>
    <mask id="b" fill="white">
      <use xlink:href="#a"/>
    </mask>
    <path fill="#81879D" d="M154.722,64.727 L224.532,64.727 L224.532,22.939 L154.722,22.939 L154.722,64.727 Z M153.253,66.196 L226.002,66.196 L226.002,21.47 L153.253,21.47 L153.253,66.196 Z" mask="url(#b)"/>
    <path fill="#81879D" d="M236.785 81.9663C236.689 82.2903 234.264 83.2473 232.631 83.2473L189.649 83.2473 189.635 83.2473 146.653 83.2473C145.02 83.2473 142.595 82.2903 142.499 81.9663L142.499 79.1773 151.192 70.5153 153.616 70.5153 147.277 77.5223 231.566 77.5223 225.718 70.5153 228.092 70.5153 236.785 79.1773 236.785 81.9663zM224.1 70.5153L228.911 76.2803 150.077 76.2803 155.294 70.5153 224.1 70.5153zM151.166 21.7823C151.166 20.2763 152.232 18.9583 153.9 18.9583L189.635 18.9583 189.649 18.9583 225.384 18.9583C227.052 18.9583 228.118 20.2763 228.118 21.7823L228.118 68.6523 151.166 68.6523 151.166 21.7823zM148.681 69.0143C148.681 69.1813 148.687 69.3413 148.699 69.4923L140.745 77.4173 140.014 78.1453 140.014 79.1773 140.014 81.9663 140.014 82.3253 140.116 82.6693C140.924 85.4073 146.597 85.7323 146.653 85.7323L189.649 85.7323 232.631 85.7323C232.687 85.7323 238.361 85.4073 239.168 82.6693L239.27 82.3253 239.27 81.9663 239.27 79.1773 239.27 78.1453 238.539 77.4173 230.709 69.6163 230.709 68.6523 230.603 68.6523 230.603 21.7823C230.603 18.8053 228.31 16.4733 225.384 16.4733L189.649 16.4733 153.9 16.4733C150.974 16.4733 148.681 18.8053 148.681 21.7823L148.681 69.0143zM14.708 64.727L84.518 64.727 84.518 22.939 14.708 22.939 14.708 64.727zM13.239 66.196L85.988 66.196 85.988 21.47 13.239 21.47 13.239 66.196z" mask="url(#b)"/>
    <path fill="#81879D" d="M96.771,81.9663 C96.675,82.2903 94.25,83.2473 92.617,83.2473 L49.635,83.2473 L49.621,83.2473 L6.639,83.2473 C5.006,83.2473 2.581,82.2903 2.485,81.9663 L2.485,79.1773 L11.178,70.5153 L13.602,70.5153 L7.263,77.5223 L91.552,77.5223 L85.704,70.5153 L88.078,70.5153 L96.771,79.1773 L96.771,81.9663 Z M84.086,70.5153 L88.897,76.2803 L10.063,76.2803 L15.28,70.5153 L84.086,70.5153 Z M11.152,21.7823 C11.152,20.2763 12.218,18.9583 13.886,18.9583 L49.621,18.9583 L49.635,18.9583 L85.37,18.9583 C87.038,18.9583 88.104,20.2763 88.104,21.7823 L88.104,68.6523 L11.152,68.6523 L11.152,21.7823 Z M8.667,69.0143 C8.667,69.1813 8.673,69.3413 8.685,69.4923 L0.731,77.4173 L0,78.1453 L0,79.1773 L0,81.9663 L0,82.3253 L0.102,82.6693 C0.91,85.4073 6.583,85.7323 6.639,85.7323 L49.635,85.7323 L92.617,85.7323 C92.673,85.7323 98.347,85.4073 99.154,82.6693 L99.256,82.3253 L99.256,81.9663 L99.256,79.1773 L99.256,78.1453 L98.525,77.4173 L90.695,69.6163 L90.695,68.6523 L90.589,68.6523 L90.589,21.7823 C90.589,18.8053 88.296,16.4733 85.37,16.4733 L49.635,16.4733 L13.886,16.4733 C10.96,16.4733 8.667,18.8053 8.667,21.7823 L8.667,69.0143 Z" mask="url(#b)"/>
    <path stroke="#81879D" stroke-width="1.469" d="M119.7937,74.8254 L119.7937,93.1514 C119.7937,97.2094 121.2587,99.9544 126.5967,99.9544 L183.1297,99.9544 C188.2027,99.9544 191.7167,97.2484 191.7167,91.3674 L191.7167,84.5024" mask="url(#b)"/>
    <path stroke="#81879D" stroke-width="1.175" d="M128.7011,36.4674 L110.7531,36.4674" mask="url(#b)"/>
    <path stroke="#81879D" stroke-width="2.057" d="M112.4553,64.3718 L112.4553,72.3008 C112.4553,74.8208 114.1903,74.8208 114.9753,74.8208 L119.6983,74.8208 L119.7463,74.8208 L124.4683,74.8208 C125.4993,74.8208 126.9893,74.1498 126.9893,72.3008 L126.9893,64.3718 L128.3703,64.3718 C128.7613,64.3718 129.0823,64.0508 129.0823,63.6588 L129.0823,60.8658 C129.0823,60.4738 128.7613,60.1538 128.3703,60.1538 L111.1223,60.1538 C110.7303,60.1538 110.4093,60.4738 110.4093,60.8658 L110.4093,63.6588 C110.4093,64.0508 110.7303,64.3718 111.1223,64.3718 L112.4553,64.3718 Z" mask="url(#b)"/>
    <g transform="translate(110 63.689)" mask="url(#b)">
      <path fill="#FCFDFD" d="M18.8192,0.2162 L0.8712,0.2162"/>
      <path stroke="#81879D" stroke-width="1.175" d="M18.8192,0.2162 L0.8712,0.2162"/>
    </g>
    <path fill="#81879D" d="M180.8825,52.4313 L198.0195,52.4313 C198.6045,52.4313 199.0785,52.9053 199.0785,53.4903 L199.0785,53.6833 C199.0785,54.2673 198.6045,54.7423 198.0195,54.7423 L180.8825,54.7423 C180.2975,54.7423 179.8235,54.2673 179.8235,53.6833 L179.8235,53.4903 C179.8235,52.9053 180.2975,52.4313 180.8825,52.4313 M180.8825,40.8783 L194.9385,40.8783 C195.5235,40.8783 195.9985,41.3523 195.9985,41.9373 L195.9985,42.1293 C195.9985,42.7143 195.5235,43.1883 194.9385,43.1883 L180.8825,43.1883 C180.2975,43.1883 179.8235,42.7143 179.8235,42.1293 L179.8235,41.9373 C179.8235,41.3523 180.2975,40.8783 180.8825,40.8783 M180.8825,48.5803 L194.9385,48.5803 C195.5235,48.5803 195.9985,49.0543 195.9985,49.6393 L195.9985,49.8323 C195.9985,50.4163 195.5235,50.8913 194.9385,50.8913 L180.8825,50.8913 C180.2975,50.8913 179.8235,50.4163 179.8235,49.8323 L179.8235,49.6393 C179.8235,49.0543 180.2975,48.5803 180.8825,48.5803 M180.8825,44.7293 L191.8585,44.7293 C192.4435,44.7293 192.9175,45.2033 192.9175,45.7883 L192.9175,45.9803 C192.9175,46.5653 192.4435,47.0393 191.8585,47.0393 L180.8825,47.0393 C180.2975,47.0393 179.8235,46.5653 179.8235,45.9803 L179.8235,45.7883 C179.8235,45.2033 180.2975,44.7293 180.8825,44.7293 M180.8825,37.0273 L198.0195,37.0273 C198.6045,37.0273 199.0785,37.5013 199.0785,38.0863 L199.0785,38.2783 C199.0785,38.8633 198.6045,39.3373 198.0195,39.3373 L180.8825,39.3373 C180.2975,39.3373 179.8235,38.8633 179.8235,38.2783 L179.8235,38.0863 C179.8235,37.5013 180.2975,37.0273 180.8825,37.0273 M180.8825,33.1763 L194.9385,33.1763 C195.5235,33.1763 195.9985,33.6503 195.9985,34.2353 L195.9985,34.4273 C195.9985,35.0123 195.5235,35.4863 194.9385,35.4863 L180.8825,35.4863 C180.2975,35.4863 179.8235,35.0123 179.8235,34.4273 L179.8235,34.2353 C179.8235,33.6503 180.2975,33.1763 180.8825,33.1763" mask="url(#b)"/>
    <path stroke="#81879D" stroke-width="1.5" d="M125.3277 39.9389L125.3277 46.4649C125.3277 48.4239 122.5677 48.4239 122.5677 46.4649L122.5677 39.9389M117.2195 39.9389L117.2195 46.4649C117.2195 48.4239 114.4595 48.4239 114.4595 46.4649L114.4595 39.9389" mask="url(#b)"/>
    <path fill="#81879D" d="M58.2084,42.1102 C58.0654,42.1102 57.9184,42.1212 57.7684,42.1442 C56.8334,42.2872 55.9954,42.6662 55.1904,43.1292 C53.4864,44.1082 51.9894,45.3652 50.5394,46.6792 C49.3234,47.7812 48.1564,48.9422 46.8994,49.9962 C43.7444,52.6432 40.2464,54.7632 36.5624,56.5852 C35.8064,56.9582 35.0394,57.3082 34.2684,57.6732 C34.2924,57.6832 34.3014,57.6902 34.3104,57.6902 C42.5444,57.6912 50.7794,57.6912 59.0134,57.6952 L59.0144,57.6952 C59.2144,57.6952 59.3074,57.6402 59.3554,57.4332 C59.5954,56.3922 59.8814,55.3602 60.0984,54.3142 C60.6644,51.5802 61.1374,48.8332 60.9424,46.0222 C60.8774,45.0832 60.7214,44.1592 60.2504,43.3232 C59.8004,42.5222 59.0704,42.1102 58.2084,42.1102 M58.2084,43.8992 C58.4074,43.8992 58.5494,43.9492 58.6914,44.2002 C58.9564,44.6712 59.0954,45.2532 59.1574,46.1462 C59.3434,48.8302 58.8364,51.5822 58.3464,53.9512 C58.2224,54.5472 58.0754,55.1372 57.9204,55.7632 C57.9084,55.8102 57.8964,55.8582 57.8844,55.9052 C52.4534,55.9022 47.0224,55.9022 41.5914,55.9012 C43.9864,54.4842 46.1214,52.9842 48.0494,51.3672 C48.8994,50.6542 49.7054,49.8992 50.4854,49.1692 C50.9014,48.7782 51.3184,48.3882 51.7414,48.0052 C53.0414,46.8272 54.4664,45.6082 56.0824,44.6802 C56.8504,44.2392 57.4534,44.0022 58.0384,43.9132 C58.0984,43.9042 58.1554,43.8992 58.2084,43.8992" mask="url(#b)"/>
    <path stroke="#81879D" stroke-width="1.61" d="M54.3192,31.0254 C52.8832,31.9904 51.4432,32.9514 50.0162,33.9304 C49.8372,34.0524 49.6782,34.2554 49.5932,34.4564 C48.1872,37.7604 46.5402,40.9374 44.5152,43.9054 C41.8402,47.8244 38.6692,51.3244 35.3082,54.6584 C35.2332,54.7334 35.2642,54.8494 35.3392,54.8084 C38.4852,53.0764 41.4732,51.1044 44.3002,48.8904 C48.7972,45.3684 52.4992,41.0934 55.9642,36.5944 C56.0422,36.4934 56.0722,36.3054 56.0412,36.1784 C55.8782,35.5084 55.6892,34.8434 55.5062,34.1774 C55.2052,33.0844 54.9032,31.9924 54.5892,30.8544 C54.4682,30.9304 54.3922,30.9764 54.3192,31.0254 Z" mask="url(#b)"/>
  </g>
</svg>
