<svg xmlns="http://www.w3.org/2000/svg" width="342" height="172" viewBox="0 0 342 172">
  <g fill="none" fill-rule="evenodd" transform="translate(67 2)">
    <path stroke="#81879D" stroke-width="1.8" d="M182.1959,157.099549 C179.3474,157.099549 177.0374,154.782735 177.0374,151.925832 C177.0374,149.068929 179.3474,146.752115 182.1959,146.752115 C185.0444,146.752115 187.3544,149.068929 187.3544,151.925832 C187.3544,154.782735 185.0444,157.099549 182.1959,157.099549 Z M192.0074,153.695035 C192.2789,152.18008 193.4234,151.151053 194.9729,150.582381 C194.8724,149.691761 194.6834,148.820699 194.4089,147.984239 C192.7649,148.112115 191.6039,147.265124 190.7279,146.001407 C189.8519,144.736186 189.7544,143.401761 190.4489,141.90185 C189.7619,141.35123 189.0149,140.869814 188.2169,140.463619 C187.1444,141.721319 185.4959,142.386274 183.9854,142.112469 C182.4749,141.840168 181.1624,140.639637 180.5939,139.085566 C179.7059,139.186363 178.8374,139.37592 178.0034,139.65123 C178.1309,141.30008 177.5744,142.515655 176.3144,143.395743 C175.0529,144.272823 173.6699,144.660965 172.1744,143.964416 C171.6254,144.653442 171.1454,145.402646 170.7419,146.203 C171.9944,147.277159 172.7099,148.641673 172.4369,150.156628 C172.1654,151.671584 170.9684,152.98946 169.4189,153.558133 C169.5194,154.450257 169.7084,155.319814 169.9829,156.157779 C171.6269,156.029903 172.8389,156.58654 173.7149,157.851761 C174.5909,159.116982 174.6884,160.451407 173.9954,161.951319 C174.6824,162.500434 175.4294,162.983354 176.2274,163.388044 C177.2999,162.13185 178.9484,161.465389 180.4589,161.739195 C181.9694,162.013 183.2819,163.213531 183.8504,164.766097 C184.7384,164.665301 185.6069,164.475743 186.4409,164.200434 C186.3134,162.553088 186.8699,161.336009 188.1299,160.457425 C189.3914,159.578841 190.7744,159.190699 192.2699,159.887248 C192.8189,159.199726 193.2989,158.449018 193.7024,157.648664 C192.4499,156.574504 191.7344,155.209991 192.0074,153.695035 Z"/>
    <path stroke="#81879D" stroke-width=".702" d="M189.1895,151.926133 C189.1895,155.800027 186.059,158.939761 182.1965,158.939761 C178.334,158.939761 175.202,155.800027 175.202,151.926133 C175.202,148.052239 178.334,144.912504 182.1965,144.912504 C186.059,144.912504 189.1895,148.052239 189.1895,151.926133 Z"/>
    <path stroke="#81879D" stroke-width="2.535" d="M177.95705,32.924177 C172.80905,32.924177 168.63605,28.7388673 168.63605,23.5756814 C168.63605,18.4124956 172.80905,14.2271858 177.95705,14.2271858 C183.10505,14.2271858 187.27805,18.4124956 187.27805,23.5756814 C187.27805,28.7388673 183.10505,32.924177 177.95705,32.924177 Z M195.68555,26.7725841 C196.17755,24.034531 198.24605,22.1765664 201.04355,21.1490442 C200.86205,19.5393097 200.52155,17.9656814 200.02655,16.4522301 C197.05505,16.6854159 194.95805,15.1539115 193.37555,12.8686903 C191.79155,10.583469 191.61605,8.17187611 192.87005,5.46090265 C191.62955,4.46647788 190.27955,3.59692035 188.83655,2.86426549 C186.90005,5.1359469 183.92105,6.33647788 181.19105,5.84302655 C178.46105,5.34957522 176.08805,3.18169912 175.06205,0.374442478 C173.45705,0.554973451 171.88805,0.897982301 170.38055,1.39444248 C170.61155,4.37470796 169.60655,6.57267257 167.32805,8.16134513 C165.04955,9.74700885 162.55055,10.4480708 159.84755,9.19037168 C158.85605,10.4330265 157.98905,11.7870088 157.25855,13.2342655 C159.52355,15.1764779 160.81505,17.6422301 160.32305,20.3802832 C159.83105,23.1168319 157.66805,25.4983363 154.87055,26.5258584 C155.05205,28.1355929 155.39255,29.7092212 155.88755,31.2226726 C158.85905,30.9909912 161.05055,31.9989558 162.63305,34.284177 C164.21555,36.5693982 164.39255,38.9794867 163.13855,41.6919646 C164.37905,42.684885 165.72905,43.5559469 167.17205,44.2870973 C169.11005,42.0169204 172.08755,40.814885 174.81755,41.3083363 C177.54755,41.8017876 179.92055,43.9711681 180.94505,46.7769204 C182.55305,46.594885 184.12055,46.2533805 185.62805,45.7554159 C185.39705,42.7766549 186.40205,40.5786903 188.68055,38.9915221 C190.95905,37.404354 193.45655,36.703292 196.16105,37.9624956 C197.15105,36.7183363 198.01805,35.3628496 198.74855,33.9170973 C196.48505,31.974885 195.19355,29.5091327 195.68555,26.7725841 Z"/>
    <path stroke="#81879D" stroke-width="1.268" d="M190.59395,23.5758319 C190.59395,30.5759204 184.93595,36.2506106 177.95645,36.2506106 C170.97845,36.2506106 165.32045,30.5759204 165.32045,23.5758319 C165.32045,16.5757434 170.97845,10.9010531 177.95645,10.9010531 C184.93595,10.9010531 190.59395,16.5757434 190.59395,23.5758319 Z"/>
    <path stroke="#81879D" stroke-width="2.535" d="M23.45705,82.5701947 C18.30905,82.5701947 14.13605,78.384885 14.13605,73.2216991 C14.13605,68.0585133 18.30905,63.8732035 23.45705,63.8732035 C28.60505,63.8732035 32.77805,68.0585133 32.77805,73.2216991 C32.77805,78.384885 28.60505,82.5701947 23.45705,82.5701947 Z M41.18555,76.4186018 C41.67755,73.6805487 43.74605,71.8225841 46.54355,70.7950619 C46.36205,69.1853274 46.02155,67.6116991 45.52655,66.0982478 C42.55505,66.3314336 40.45805,64.7999292 38.87555,62.514708 C37.29155,60.2294867 37.11605,57.8178938 38.37005,55.1069204 C37.12955,54.1124956 35.77955,53.2429381 34.33655,52.5102832 C32.40005,54.7819646 29.42105,55.9824956 26.69105,55.4890442 C23.96105,54.9955929 21.58805,52.8277168 20.56205,50.0204602 C18.95705,50.2009912 17.38805,50.544 15.88055,51.0404602 C16.11155,54.0207257 15.10655,56.2186903 12.82805,57.8073628 C10.54955,59.3930265 8.05055,60.0940885 5.34755,58.8363894 C4.35605,60.0790442 3.48905,61.4330265 2.75855,62.8802832 C5.02355,64.8224956 6.31505,67.2882478 5.82305,70.0263009 C5.33105,72.7628496 3.16805,75.144354 0.37055,76.1718761 C0.55205,77.7816106 0.89255,79.3552389 1.38755,80.8686903 C4.35905,80.6370088 6.55055,81.6449735 8.13305,83.9301947 C9.71555,86.2154159 9.89255,88.6255044 8.63855,91.3379823 C9.87905,92.3309027 11.22905,93.2019646 12.67205,93.933115 C14.61005,91.6629381 17.58755,90.4609027 20.31755,90.954354 C23.04755,91.4478053 25.42055,93.6171858 26.44505,96.4229381 C28.05305,96.2409027 29.62055,95.8993982 31.12805,95.4014336 C30.89705,92.4226726 31.90205,90.224708 34.18055,88.6375398 C36.45905,87.0503717 38.95655,86.3493097 41.66105,87.6085133 C42.65105,86.364354 43.51805,85.0088673 44.24855,83.563115 C41.98505,81.6209027 40.69355,79.1551504 41.18555,76.4186018 Z"/>
    <path stroke="#81879D" stroke-width="1.268" d="M36.09395,73.2218496 C36.09395,80.2219381 30.43595,85.8966283 23.45645,85.8966283 C16.47845,85.8966283 10.82045,80.2219381 10.82045,73.2218496 C10.82045,66.2217611 16.47845,60.5470708 23.45645,60.5470708 C30.43595,60.5470708 36.09395,66.2217611 36.09395,73.2218496 Z"/>
    <path stroke="#81879D" stroke-width="2.04" d="M189.95705,94.2788319 C185.81255,94.2788319 182.45255,90.9089204 182.45255,86.7521947 C182.45255,82.595469 185.81255,79.2270619 189.95705,79.2270619 C194.10155,79.2270619 197.46155,82.595469 197.46155,86.7521947 C197.46155,90.9089204 194.10155,94.2788319 189.95705,94.2788319 Z M204.22955,89.3262655 C204.62555,87.1222832 206.29055,85.6253805 208.54355,84.7994513 C208.39805,83.5026372 208.12355,82.2359115 207.72455,81.0173274 C205.33205,81.2053805 203.64305,79.9732566 202.36955,78.1333451 C201.09605,76.2934336 200.95355,74.3512212 201.96305,72.1698053 C200.96405,71.3679469 199.87805,70.6683894 198.71555,70.0786549 C197.15555,71.906531 194.75855,72.8738761 192.56105,72.476708 C190.36205,72.0795398 188.45255,70.3329027 187.62605,68.0747611 C186.33455,68.2191858 185.07155,68.496 183.85805,68.8946726 C184.04255,71.2942301 183.23405,73.0634336 181.39955,74.3421947 C179.56505,75.6194513 177.55355,76.1836106 175.37705,75.1711327 C174.58055,76.1715752 173.88155,77.2622832 173.29355,78.426708 C175.11605,79.9913097 176.15705,81.975646 175.75955,84.1796283 C175.36355,86.3836106 173.62355,88.3002478 171.37055,89.1276814 C171.51605,90.4244956 171.79055,91.6897168 172.18955,92.9083009 C174.58205,92.7217522 176.34605,93.5341416 177.62105,95.3740531 C178.89455,97.2139646 179.03705,99.1546726 178.02755,101.337593 C179.02505,102.136442 180.11255,102.837504 181.27355,103.427239 C182.83355,101.599363 185.23205,100.630513 187.42955,101.027681 C189.62705,101.426354 191.53805,103.172991 192.36305,105.431133 C193.65605,105.285204 194.91905,105.009894 196.13255,104.609717 C195.94805,102.211664 196.75505,100.44246 198.59105,99.1636991 C200.42405,97.8864425 202.43555,97.3222832 204.61205,98.3347611 C205.41005,97.3328142 206.10755,96.2421062 206.69555,95.0776814 C204.87305,93.5145841 203.83355,91.5302478 204.22955,89.3262655 Z"/>
    <path stroke="#81879D" stroke-width="1.02" d="M200.1308,86.752646 C200.1308,92.3882212 195.5753,96.9571593 189.9563,96.9571593 C184.3388,96.9571593 179.7833,92.3882212 179.7833,86.752646 C179.7833,81.1170708 184.3388,76.5481327 189.9563,76.5481327 C195.5753,76.5481327 200.1308,81.1170708 200.1308,86.752646 Z"/>
    <path stroke="#81879D" stroke-width="2.151" d="M81.464,156.878549 C77.0945,156.878549 73.553,153.326602 73.553,148.944212 C73.553,144.563327 77.0945,141.009876 81.464,141.009876 C85.8335,141.009876 89.375,144.563327 89.375,148.944212 C89.375,153.326602 85.8335,156.878549 81.464,156.878549 Z M96.509,151.658195 C96.9275,149.333858 98.6825,147.757221 101.057,146.884655 C100.904,145.518637 100.6145,144.182708 100.1945,142.899434 C97.6715,143.096513 95.8925,141.79669 94.55,139.857487 C93.206,137.918283 93.056,135.872265 94.1195,133.570496 C93.068,132.726513 91.922,131.989345 90.698,131.366513 C89.054,133.295186 86.525,134.313681 84.209,133.895451 C81.8915,133.475717 79.8785,131.635805 79.007,129.254301 C77.645,129.407752 76.313,129.698106 75.0335,130.119345 C75.23,132.648283 74.3765,134.51377 72.443,135.861735 C70.5095,137.208195 68.3885,137.802442 66.095,136.735805 C65.2535,137.790407 64.517,138.939788 63.8975,140.167398 C65.819,141.816248 66.9155,143.908903 66.4985,146.231735 C66.08,148.556071 64.2455,150.576513 61.871,151.447575 C62.024,152.815097 62.3135,154.149522 62.7335,155.434301 C65.2565,155.237221 67.115,156.093239 68.459,158.032442 C69.8015,159.97315 69.9515,162.017664 68.888,164.319434 C69.941,165.161912 71.087,165.900584 72.311,166.521912 C73.955,164.596248 76.4825,163.574743 78.8,163.992973 C81.116,164.412708 83.1305,166.254124 84.0005,168.635628 C85.364,168.480673 86.6945,168.190319 87.9755,167.76908 C87.779,165.240142 88.631,163.374655 90.5645,162.028195 C92.498,160.68023 94.619,160.085982 96.9125,161.154124 C97.754,160.098018 98.4905,158.948637 99.11,157.721027 C97.1885,156.072177 96.092,153.981027 96.509,151.658195 Z"/>
    <path stroke="#81879D" stroke-width="1.075" d="M92.189,148.944664 C92.189,154.885637 87.3875,159.701301 81.464,159.701301 C75.5405,159.701301 70.739,154.885637 70.739,148.944664 C70.739,143.00369 75.5405,138.188027 81.464,138.188027 C87.3875,138.188027 92.189,143.00369 92.189,148.944664 Z"/>
    <path stroke="#81879D" stroke-width="2.1" d="M64.72055,26.435292 C61.07555,26.435292 58.11905,23.4715752 58.11905,19.8143186 C58.11905,16.1585664 61.07555,13.1933451 64.72055,13.1933451 C68.36555,13.1933451 71.32205,16.1585664 71.32205,19.8143186 C71.32205,23.4715752 68.36555,26.435292 64.72055,26.435292 Z M77.27555,22.0784779 C77.62355,20.1392743 79.08905,18.8244071 81.07055,18.0962655 C80.94155,16.9559115 80.70005,15.8411327 80.35055,14.7699823 C78.24605,14.9339646 76.75955,13.8507788 75.63905,12.2320177 C74.51855,10.6132566 74.39405,8.90573451 75.28205,6.9860885 C74.40305,6.2820177 73.44755,5.66520354 72.42605,5.14768142 C71.05355,6.7559115 68.94455,7.6059115 67.01105,7.25688496 C65.07755,6.90635398 63.39755,5.37184071 62.67005,3.38299115 C61.53305,3.51237168 60.42305,3.75458407 59.35505,4.10661947 C59.51855,6.21732743 58.80605,7.77290265 57.19355,8.89821239 C55.57955,10.0220177 53.80955,10.5169735 51.89555,9.62785841 C51.19355,10.5064425 50.58005,11.4662655 50.06255,12.4907788 C51.66605,13.865823 52.58105,15.6124602 52.23155,17.5516637 C51.88355,19.4893628 50.35205,21.175823 48.37055,21.9039646 C48.49805,23.0443186 48.74105,24.1575929 49.09055,25.2302478 C51.19505,25.0662655 52.74755,25.7793628 53.86805,27.3981239 C54.98855,29.016885 55.11455,30.7244071 54.22655,32.6440531 C55.10405,33.3481239 56.06105,33.9649381 57.08255,34.4824602 C58.45505,32.8742301 60.56405,32.0227257 62.49755,32.3732566 C64.43105,32.7222832 66.11105,34.2583009 66.83705,36.245646 C67.97555,36.1177699 69.08555,35.8755575 70.15355,35.5235221 C69.99005,33.4128142 70.70105,31.8572389 72.31505,30.7319292 C73.92905,29.6081239 75.69755,29.1116637 77.61155,30.0037876 C78.31355,29.1221947 78.92855,28.1623717 79.44605,27.1378584 C77.84255,25.7628142 76.92755,24.0176814 77.27555,22.0784779 Z"/>
    <path stroke="#81879D" stroke-width=".897" d="M73.67015,19.8147699 C73.67015,24.7718496 69.66365,28.7901681 64.72115,28.7901681 C59.77715,28.7901681 55.77065,24.7718496 55.77065,19.8147699 C55.77065,14.8576903 59.77715,10.8393717 64.72115,10.8393717 C69.66365,10.8393717 73.67015,14.8576903 73.67015,19.8147699 Z"/>
    <path fill="#81879D" d="M68.51495,86.6431239 L77.67545,79.0487876 L77.67545,97.3726814 L68.51495,97.3726814 L68.51495,86.6431239 Z M68.51495,54.120469 L140.24645,54.120469 L140.24645,67.0103805 L130.23395,61.9780796 L119.48045,73.801354 L109.76645,77.2750708 L100.04045,69.6807345 L98.73995,71.0633009 L98.53145,71.0633009 L98.53145,71.2844513 L88.55345,81.8936549 L78.20345,76.1347168 L68.51495,84.1683451 L68.51495,54.120469 Z M140.24645,97.3726814 L131.08595,97.3726814 L131.08595,64.540115 L140.24645,69.1451593 L140.24645,97.3726814 Z M129.81845,97.3726814 L120.65795,97.3726814 L120.65795,75.3373717 L129.81845,65.2667522 L129.81845,97.3726814 Z M119.38895,97.3726814 L110.22845,97.3726814 L110.22845,79.1360442 L119.38895,75.8594071 L119.38895,97.3726814 Z M108.96095,97.3726814 L99.80045,97.3726814 L99.80045,72.7151593 L100.23695,72.2517965 L108.96095,79.0638319 L108.96095,97.3726814 Z M98.53145,97.3726814 L89.37245,97.3726814 L89.37245,83.8027699 L98.53145,74.0646283 L98.53145,97.3726814 Z M88.10345,97.3726814 L78.94295,97.3726814 L78.94295,78.7283451 L88.10345,83.8253363 L88.10345,97.3726814 Z M67.24595,98.6439204 L141.51395,98.6439204 L141.51395,52.8492301 L67.24595,52.8492301 L67.24595,98.6439204 Z"/>
    <path fill="#81879D" d="M152.52365,114.791212 C152.42615,115.12369 149.94965,116.103071 148.28315,116.103071 L104.40365,116.103071 L104.38865,116.103071 L60.50915,116.103071 C58.84115,116.103071 56.36615,115.12369 56.26865,114.791212 L56.26865,111.935814 L65.14415,103.06723 L67.61765,103.06723 L61.14665,110.241832 L147.19565,110.241832 L141.22565,103.06723 L143.64815,103.06723 L152.52365,111.935814 L152.52365,114.791212 Z M139.57415,103.06723 L144.48515,108.969088 L64.00565,108.969088 L69.33065,103.06723 L139.57415,103.06723 Z M65.11715,53.168469 C65.11715,51.6264336 66.20465,50.2769646 67.90715,50.2769646 L104.38865,50.2769646 L104.40365,50.2769646 L140.88365,50.2769646 C142.58765,50.2769646 143.67515,51.6264336 143.67515,53.168469 L143.67515,101.158115 L65.11715,101.158115 L65.11715,53.168469 Z M62.57915,101.529708 C62.57915,101.701212 62.58665,101.86369 62.59715,102.018646 L54.47765,110.133513 L53.73215,110.879708 L53.73215,111.935814 L53.73215,114.791212 L53.73215,115.158292 L53.83565,115.511832 C54.66065,118.314575 60.45215,118.647053 60.50915,118.647053 L104.40365,118.647053 L148.28315,118.647053 C148.34015,118.647053 154.13165,118.314575 154.95665,115.510327 L155.06015,115.158292 L155.06015,114.791212 L155.06015,111.935814 L155.06015,110.879708 L154.31465,110.133513 L146.32115,102.145018 L146.32115,101.158115 L146.21165,101.158115 L146.21165,53.168469 C146.21165,50.1205044 143.87165,47.7329823 140.88365,47.7329823 L104.40365,47.7329823 L67.90715,47.7329823 C64.92065,47.7329823 62.57915,50.1205044 62.57915,53.168469 L62.57915,101.529708 Z"/>
    <path stroke="#81879D" stroke-width="1.5" d="M41.45315 77.6329735L63.20315 77.6329735M121.7789 19.0417965L161.1494 19.0417965M79.7021 19.0417965L109.6076 19.0417965M115.5944 26.1095841L115.5944 48.5255133M139.13015 118.177973L139.13015 145.594611M145.31645 152.667814L170.61845 152.667814M96.5096 152.667814L133.1396 152.667814"/>
    <polygon stroke="#81879D" stroke-width="1.5" points="121.716 17.204 109.539 17.204 109.539 20.782 113.682 20.782 113.682 26.274 117.296 26.274 117.296 20.782 121.716 20.782"/>
    <polygon stroke="#81879D" stroke-width="1.5" points="145.317 154.551 133.14 154.551 133.14 150.973 137.283 150.973 137.283 145.481 140.897 145.481 140.897 150.973 145.317 150.973"/>
    <path stroke="#81879D" stroke-width="1.661" d="M175.15085,83.9067257 L144.85835,83.9067257"/>
  </g>
</svg>
