<svg xmlns="http://www.w3.org/2000/svg" width="342" height="172" viewBox="0 0 342 172" xmlns:xlink="http://www.w3.org/1999/xlink">
  <defs>
    <polygon id="a" points="0 100.689 239.27 100.689 239.27 0 0 0"/>
  </defs>
  <g fill="none" fill-rule="evenodd" transform="translate(51 36)">
    <path stroke="#81879D" stroke-width="2.057" d="M112.503,36.0044 L112.503,32.6624 C112.503,30.0954 115.871,29.0264 115.871,27.4584 C115.871,25.8904 116.088,24.4644 119.674,24.4644 L119.818,24.4644 C123.403,24.4644 123.621,25.8904 123.621,27.4584 C123.621,29.0264 126.989,30.0954 126.989,32.6624 L126.989,36.0044 L128.37,36.0044 C128.762,36.0044 129.082,36.3254 129.082,36.7174 L129.082,39.4934 C129.082,39.8854 128.762,40.2054 128.37,40.2054 L111.122,40.2054 C110.73,40.2054 110.409,39.8854 110.409,39.4934 L110.409,36.7174 C110.409,36.3254 110.73,36.0044 111.122,36.0044 L112.502,36.0044 L112.503,36.0044 Z"/>
    <path stroke="#81879D" stroke-width="1.469" d="M119.9559,24.3944 L119.9559,7.5384 C119.9559,3.4794 118.4909,0.7344 113.1529,0.7344 L58.0889,0.7344 C53.0159,0.7344 49.5019,3.4404 49.5019,9.3224 L49.5019,17.6564"/>
    <mask id="b" fill="white">
      <use xlink:href="#a"/>
    </mask>
    <path fill="#81879D" d="M154.722,64.727 L224.532,64.727 L224.532,22.939 L154.722,22.939 L154.722,64.727 Z M153.253,66.196 L226.002,66.196 L226.002,21.47 L153.253,21.47 L153.253,66.196 Z" mask="url(#b)"/>
    <path fill="#81879D" d="M236.785 81.9663C236.689 82.2903 234.264 83.2473 232.631 83.2473L189.649 83.2473 189.635 83.2473 146.653 83.2473C145.02 83.2473 142.595 82.2903 142.499 81.9663L142.499 79.1773 151.192 70.5153 153.616 70.5153 147.277 77.5223 231.566 77.5223 225.718 70.5153 228.092 70.5153 236.785 79.1773 236.785 81.9663zM224.1 70.5153L228.911 76.2803 150.077 76.2803 155.294 70.5153 224.1 70.5153zM151.166 21.7823C151.166 20.2763 152.232 18.9583 153.9 18.9583L189.635 18.9583 189.649 18.9583 225.384 18.9583C227.052 18.9583 228.118 20.2763 228.118 21.7823L228.118 68.6523 151.166 68.6523 151.166 21.7823zM148.681 69.0143C148.681 69.1813 148.687 69.3413 148.699 69.4923L140.745 77.4173 140.014 78.1453 140.014 79.1773 140.014 81.9663 140.014 82.3253 140.116 82.6693C140.924 85.4073 146.597 85.7323 146.653 85.7323L189.649 85.7323 232.631 85.7323C232.687 85.7323 238.361 85.4073 239.168 82.6693L239.27 82.3253 239.27 81.9663 239.27 79.1773 239.27 78.1453 238.539 77.4173 230.709 69.6163 230.709 68.6523 230.603 68.6523 230.603 21.7823C230.603 18.8053 228.31 16.4733 225.384 16.4733L189.649 16.4733 153.9 16.4733C150.974 16.4733 148.681 18.8053 148.681 21.7823L148.681 69.0143zM14.708 64.727L84.518 64.727 84.518 22.939 14.708 22.939 14.708 64.727zM13.239 66.196L85.988 66.196 85.988 21.47 13.239 21.47 13.239 66.196z" mask="url(#b)"/>
    <path fill="#81879D" d="M96.771,81.9663 C96.675,82.2903 94.25,83.2473 92.617,83.2473 L49.635,83.2473 L49.621,83.2473 L6.639,83.2473 C5.006,83.2473 2.581,82.2903 2.485,81.9663 L2.485,79.1773 L11.178,70.5153 L13.602,70.5153 L7.263,77.5223 L91.552,77.5223 L85.704,70.5153 L88.078,70.5153 L96.771,79.1773 L96.771,81.9663 Z M84.086,70.5153 L88.897,76.2803 L10.063,76.2803 L15.28,70.5153 L84.086,70.5153 Z M11.152,21.7823 C11.152,20.2763 12.218,18.9583 13.886,18.9583 L49.621,18.9583 L49.635,18.9583 L85.37,18.9583 C87.038,18.9583 88.104,20.2763 88.104,21.7823 L88.104,68.6523 L11.152,68.6523 L11.152,21.7823 Z M8.667,69.0143 C8.667,69.1813 8.673,69.3413 8.685,69.4923 L0.731,77.4173 L0,78.1453 L0,79.1773 L0,81.9663 L0,82.3253 L0.102,82.6693 C0.91,85.4073 6.583,85.7323 6.639,85.7323 L49.635,85.7323 L92.617,85.7323 C92.673,85.7323 98.347,85.4073 99.154,82.6693 L99.256,82.3253 L99.256,81.9663 L99.256,79.1773 L99.256,78.1453 L98.525,77.4173 L90.695,69.6163 L90.695,68.6523 L90.589,68.6523 L90.589,21.7823 C90.589,18.8053 88.296,16.4733 85.37,16.4733 L49.635,16.4733 L13.886,16.4733 C10.96,16.4733 8.667,18.8053 8.667,21.7823 L8.667,69.0143 Z" mask="url(#b)"/>
    <path stroke="#81879D" stroke-width="1.469" d="M119.7937,74.8254 L119.7937,93.1514 C119.7937,97.2094 121.2587,99.9544 126.5967,99.9544 L183.1297,99.9544 C188.2027,99.9544 191.7167,97.2484 191.7167,91.3674 L191.7167,84.5024" mask="url(#b)"/>
    <path stroke="#81879D" stroke-width="1.175" d="M128.7011,36.4674 L110.7531,36.4674" mask="url(#b)"/>
    <path stroke="#81879D" stroke-width="2.057" d="M112.4553,64.3718 L112.4553,72.3008 C112.4553,74.8208 114.1903,74.8208 114.9753,74.8208 L119.6983,74.8208 L119.7463,74.8208 L124.4683,74.8208 C125.4993,74.8208 126.9893,74.1498 126.9893,72.3008 L126.9893,64.3718 L128.3703,64.3718 C128.7613,64.3718 129.0823,64.0508 129.0823,63.6588 L129.0823,60.8658 C129.0823,60.4738 128.7613,60.1538 128.3703,60.1538 L111.1223,60.1538 C110.7303,60.1538 110.4093,60.4738 110.4093,60.8658 L110.4093,63.6588 C110.4093,64.0508 110.7303,64.3718 111.1223,64.3718 L112.4553,64.3718 Z" mask="url(#b)"/>
    <g transform="translate(110 63.689)" mask="url(#b)">
      <path fill="#FCFDFD" d="M18.8192,0.2162 L0.8712,0.2162"/>
      <path stroke="#81879D" stroke-width="1.175" d="M18.8192,0.2162 L0.8712,0.2162"/>
    </g>
    <path fill="#81879D" d="M180.8825,52.4313 L198.0195,52.4313 C198.6045,52.4313 199.0785,52.9053 199.0785,53.4903 L199.0785,53.6833 C199.0785,54.2673 198.6045,54.7423 198.0195,54.7423 L180.8825,54.7423 C180.2975,54.7423 179.8235,54.2673 179.8235,53.6833 L179.8235,53.4903 C179.8235,52.9053 180.2975,52.4313 180.8825,52.4313 M180.8825,40.8783 L194.9385,40.8783 C195.5235,40.8783 195.9985,41.3523 195.9985,41.9373 L195.9985,42.1293 C195.9985,42.7143 195.5235,43.1883 194.9385,43.1883 L180.8825,43.1883 C180.2975,43.1883 179.8235,42.7143 179.8235,42.1293 L179.8235,41.9373 C179.8235,41.3523 180.2975,40.8783 180.8825,40.8783 M180.8825,48.5803 L194.9385,48.5803 C195.5235,48.5803 195.9985,49.0543 195.9985,49.6393 L195.9985,49.8323 C195.9985,50.4163 195.5235,50.8913 194.9385,50.8913 L180.8825,50.8913 C180.2975,50.8913 179.8235,50.4163 179.8235,49.8323 L179.8235,49.6393 C179.8235,49.0543 180.2975,48.5803 180.8825,48.5803 M180.8825,44.7293 L191.8585,44.7293 C192.4435,44.7293 192.9175,45.2033 192.9175,45.7883 L192.9175,45.9803 C192.9175,46.5653 192.4435,47.0393 191.8585,47.0393 L180.8825,47.0393 C180.2975,47.0393 179.8235,46.5653 179.8235,45.9803 L179.8235,45.7883 C179.8235,45.2033 180.2975,44.7293 180.8825,44.7293 M180.8825,37.0273 L198.0195,37.0273 C198.6045,37.0273 199.0785,37.5013 199.0785,38.0863 L199.0785,38.2783 C199.0785,38.8633 198.6045,39.3373 198.0195,39.3373 L180.8825,39.3373 C180.2975,39.3373 179.8235,38.8633 179.8235,38.2783 L179.8235,38.0863 C179.8235,37.5013 180.2975,37.0273 180.8825,37.0273 M180.8825,33.1763 L194.9385,33.1763 C195.5235,33.1763 195.9985,33.6503 195.9985,34.2353 L195.9985,34.4273 C195.9985,35.0123 195.5235,35.4863 194.9385,35.4863 L180.8825,35.4863 C180.2975,35.4863 179.8235,35.0123 179.8235,34.4273 L179.8235,34.2353 C179.8235,33.6503 180.2975,33.1763 180.8825,33.1763" mask="url(#b)"/>
    <path stroke="#81879D" stroke-width="1.5" d="M125.3277 39.9389L125.3277 46.4649C125.3277 48.4239 122.5677 48.4239 122.5677 46.4649L122.5677 39.9389M117.2195 39.9389L117.2195 46.4649C117.2195 48.4239 114.4595 48.4239 114.4595 46.4649L114.4595 39.9389" mask="url(#b)"/>
    <path stroke="#81879D" stroke-width="1.504" d="M45.9843,44.5092 C46.0583,50.5322 41.2353,55.4742 35.2133,55.5482 C29.1903,55.6222 24.2473,50.8002 24.1733,44.7772 C24.0993,38.7542 28.9223,33.8122 34.9453,33.7382 C40.9673,33.6642 45.9103,38.4862 45.9843,44.5092 Z" mask="url(#b)"/>
    <path fill="#81879D" d="M42.8543 44.9733C42.8563 45.1723 42.6963 45.3363 42.4973 45.3383L40.5863 45.3623C40.5633 45.2513 40.5283 45.1403 40.4693 45.0363 40.4183 44.9483 40.2893 44.7103 40.1103 44.3793 39.8513 43.9003 39.4793 43.2163 39.0823 42.4963L42.4613 42.4543C42.6603 42.4523 42.8253 42.6123 42.8273 42.8103L42.8543 44.9733zM42.0763 50.5383C41.9523 50.1603 41.0463 50.1463 40.6333 49.5813 40.2193 49.0173 40.5523 48.7203 40.6923 48.5833 42.3263 47.6393 42.0763 50.5383 42.0763 50.5383L42.0763 50.5383zM39.9563 48.2173L39.3773 47.3303C39.2583 47.1463 39.3163 46.9153 39.5053 46.8143L40.0433 46.5303C40.2333 46.4313 40.4733 46.5073 40.5773 46.7003L41.0353 47.5543C41.1403 47.7463 41.0733 47.9973 40.8913 48.1093L40.5073 48.3443C40.3243 48.4583 40.0763 48.4003 39.9563 48.2173L39.9563 48.2173zM38.6973 46.2453C38.3173 46.0613 36.3843 41.7613 35.8893 40.6393 35.3933 39.5173 33.9003 36.5323 34.3683 36.2933 34.7013 36.1213 35.9333 38.4713 36.8523 39.8793 37.7693 41.2883 39.6973 44.9253 39.9343 45.3393 40.1693 45.7543 39.7213 46.1073 39.4713 46.2153 39.2213 46.3223 39.0763 46.4283 38.6973 46.2453L38.6973 46.2453zM33.2733 45.4513L34.9003 42.5473 35.8573 42.5353 37.2423 45.4033 33.2733 45.4513zM29.9903 48.7643L29.0413 48.2363C28.8673 48.1393 28.8043 47.9193 28.9023 47.7463L33.1753 40.1153C33.2723 39.9423 33.4943 39.8783 33.6683 39.9763L34.6173 40.5033C34.7913 40.6003 34.8533 40.8213 34.7563 40.9943L30.4833 48.6253C30.3873 48.7983 30.1643 48.8603 29.9903 48.7643L29.9903 48.7643zM29.7083 49.5643L28.4993 50.4063C28.3373 50.5193 28.2203 50.4503 28.2403 50.2533L28.3863 48.8373C28.4063 48.6393 28.5643 48.5573 28.7383 48.6533L29.6873 49.1813C29.8613 49.2783 29.8703 49.4513 29.7083 49.5643L29.7083 49.5643zM26.9343 45.1693L26.9073 43.0063C26.9053 42.8073 27.0653 42.6433 27.2643 42.6413L31.0823 42.5943 29.4553 45.4983 27.3003 45.5253C27.1013 45.5273 26.9363 45.3673 26.9343 45.1693L26.9343 45.1693zM72.9747 45.4706L68.4697 48.0456 66.0267 44.6426 68.4697 41.2406 72.9747 43.8156C73.2707 43.9846 73.4547 44.3016 73.4547 44.6426 73.4547 44.9846 73.2707 45.3016 72.9747 45.4706L72.9747 45.4706zM60.1827 52.7826L65.1217 45.9026 67.1867 48.7786 60.1827 52.7826zM57.3677 54.1846C57.2337 54.1716 57.1017 54.1326 56.9847 54.0636 56.6917 53.8946 56.5097 53.5786 56.5097 53.2396L56.5097 36.0466C56.5097 35.7076 56.6917 35.3916 56.9847 35.2216 57.1017 35.1536 57.2327 35.1136 57.3667 35.0996L64.2177 44.6426 57.3677 54.1846zM67.1867 40.5066L65.1217 43.3836 60.1827 36.5036 67.1867 40.5066zM73.7037 42.5396L58.6647 33.9436C58.2997 33.7346 57.8837 33.6236 57.4627 33.6236 57.0367 33.6236 56.6157 33.7376 56.2467 33.9516 55.5027 34.3826 55.0397 35.1856 55.0397 36.0466L55.0397 53.2396C55.0397 54.1006 55.5027 54.9026 56.2467 55.3346 56.6157 55.5496 57.0357 55.6626 57.4627 55.6626 57.8837 55.6626 58.2997 55.5516 58.6647 55.3426L73.7037 46.7466C74.4567 46.3156 74.9237 45.5096 74.9237 44.6426 74.9237 43.7756 74.4567 42.9706 73.7037 42.5396L73.7037 42.5396z" mask="url(#b)"/>
  </g>
</svg>
