<svg xmlns="http://www.w3.org/2000/svg" width="342" height="172" viewBox="0 0 342 172">
  <g fill="none" fill-rule="evenodd" transform="translate(70 10)">
    <path fill="#F2F2F6" d="M17.5578,118.1881 L33.2758,111.4751 L33.7678,106.8901 L33.7108,92.2241 C33.7108,92.2241 31.7888,93.0261 31.6248,89.2601 C31.4618,85.4941 31.0538,81.3951 33.8378,81.2311 C36.6208,81.0671 41.2928,86.2011 42.1538,85.9151 C43.3008,84.0981 54.4838,83.2381 54.4838,83.2381 C54.4838,83.2381 60.1098,78.4051 60.6008,79.2241 C61.0918,80.0421 60.6008,84.8631 60.6008,84.8631 C60.6008,84.8631 68.3578,91.2831 69.0128,94.2301 C69.6678,97.1781 67.6738,104.5531 67.6738,104.5531 L75.1418,102.6191 L75.2258,92.5101 C75.2258,92.5101 66.1728,88.9431 67.4828,85.3411 C68.7928,81.7391 68.8058,80.8571 71.4258,80.8571 C74.0458,80.8571 77.8118,81.1841 77.8118,81.1841 C77.8118,81.1841 83.4288,75.4131 88.3208,74.6361 C91.2838,73.5841 90.5828,66.6121 94.1848,67.9221 C97.7868,69.2321 97.8088,72.0331 97.8088,72.0331 L107.8378,76.1501 L120.7098,63.5011 C120.7098,63.5011 125.2938,70.5421 129.7148,71.6881 C134.1358,72.8341 142.9778,71.8521 142.9778,71.8521 L143.7958,83.4771 L152.8398,79.4151 C152.8398,79.4151 155.9408,71.6041 157.9058,71.7681 C159.8708,71.9321 160.8688,77.5991 160.8688,77.5991 L174.6328,82.1871 C174.6328,82.1871 181.9518,80.3041 182.2798,82.7601 C182.6068,85.2161 181.4548,90.8451 179.9808,92.1541 C178.5078,93.4641 176.1258,93.7251 176.1258,93.7251 L175.8758,98.4361 L186.5648,90.3771 C186.5648,90.3771 188.3198,94.6141 187.5008,97.3981 C186.6828,100.1811 175.3018,112.6781 175.3018,112.6781 C175.3018,112.6781 174.2508,116.1191 175.6838,118.8911 C180.9418,135.9051 174.9458,148.0581 173.9638,148.7131 C172.9818,149.3681 176.4858,150.2991 176.7068,152.8991 C176.9268,155.5001 167.3268,157.6821 166.5078,154.7351 C165.6898,151.7881 164.7538,148.8061 164.7538,148.8061 C157.5208,147.4571 158.4788,149.8601 144.3288,144.6991 C144.3288,144.6991 145.0018,149.4781 143.0898,150.6251 C141.1788,151.7721 134.0368,152.7261 134.2008,150.4341 C134.3648,148.1411 135.3478,141.6401 136.7818,141.4491 C129.8038,125.5821 138.3108,119.0821 137.0678,115.5461 C136.1128,115.8321 126.8408,130.7431 126.8408,130.7431 L125.1168,141.8201 C125.1168,141.8201 134.7738,143.6221 133.6268,145.7501 C132.4808,147.8791 124.8028,149.9521 124.8028,149.9521 C124.8028,149.9521 119.0728,144.7131 116.4528,145.3681 C111.7388,146.9931 99.2158,146.0371 98.0698,146.0371 C99.1448,147.7181 97.4598,149.9521 96.6408,150.6071 C95.8218,151.2621 92.3838,155.1921 89.1088,155.1921 C85.8348,155.1921 80.3738,154.4461 80.8648,152.1541 C81.3558,149.8621 86.9808,146.6781 86.9808,146.6781 C86.9808,146.6781 77.7518,134.1951 78.5708,130.2651 C79.3898,126.3361 81.7958,124.7811 81.7958,124.7811 L75.0278,112.4571 L68.4788,117.6971 L68.8058,125.8831 C68.8058,125.8831 74.8028,124.7941 75.1298,130.3611 C75.4568,135.9281 69.0408,146.0661 70.3508,148.5221 C71.6608,150.9781 77.6548,152.6751 76.1808,154.6391 C74.7078,156.6041 68.7248,159.5531 67.5788,156.9331 C66.4328,154.3141 64.5198,150.1471 64.5198,150.1471 L43.2638,151.7531 C43.2638,151.7531 41.4628,159.2851 39.3348,160.1041 C37.2058,160.9221 28.1988,161.1371 29.3448,157.6981 C30.4908,154.2601 36.3868,153.2271 36.3868,153.2271 C36.3868,153.2271 26.3998,139.8011 27.2178,134.8891 C28.0368,129.9771 32.4998,132.1071 32.4998,129.9791 C32.4998,127.8501 32.0218,124.7221 32.0218,124.7221 L18.0488,124.7371 L17.5578,118.1881 Z"/>
    <path fill="#FFFFFF" d="M121.7773 86.431C121.7773 86.431 109.2283 105.119 124.0163 122.562 141.4593 121.551 145.3283 90.829 143.0783 92.16 140.8273 93.491 135.7713 87.424 135.7713 87.424 135.7713 87.424 127.0143 90.872 121.7773 86.431M37.7981 145.849C37.4861 145.315 30.8571 136.805 34.7071 133.485 42.9861 126.345 36.0641 114.148 43.9801 112.157 48.9541 115.388 63.4541 109.993 63.4541 109.993 63.4541 109.993 67.3941 114.526 68.1661 116.999 68.9391 119.472 70.7841 149.618 64.2931 150.082 59.6141 151.457 41.5171 154.803 37.7981 145.849"/>
    <path fill="#FFFFFF" d="M141.8006 99.2859C147.0566 103.0639 147.7766 107.2179 160.5246 106.8409 160.5246 106.8409 166.9296 107.9909 165.9446 117.0239 163.8096 129.8349 167.2586 133.9409 167.2586 133.9409 167.2586 133.9409 167.2586 147.2449 165.1236 148.7229 162.9886 150.2019 149.4616 145.5419 144.4816 144.4229 139.5016 143.3029 138.5556 133.8239 138.1876 130.3279 137.8586 127.2069 137.6946 122.1159 137.6946 122.1159L138.1876 114.2319 141.8006 99.2859zM86.6385 111.0429L86.9975 126.1139C86.9975 126.1139 91.5255 139.8189 94.5445 143.6419 97.9525 145.4359 113.2855 147.2809 117.0065 144.5919 120.7275 141.9029 122.0195 132.7539 122.0195 132.7539 116.0265 134.9749 100.6365 127.3889 97.4035 125.9349 93.7815 124.3049 95.4935 113.8009 95.4935 113.8009L86.6385 111.0429z"/>
    <path fill="#F2F2F6" d="M192.6981 89.26C189.7351 88.973 189.5441 96.333 192.0291 95.664 194.5141 94.995 195.1831 89.642 192.6981 89.26M188.1101 71.2903C188.1101 71.2903 185.8161 87.4443 189.9261 86.6793 194.0361 85.9143 196.5211 72.1503 196.5211 72.1503 196.5211 72.1503 191.0731 68.9963 188.1101 71.2903M4.2064 117.075C4.2064 117.075 12.4264 112.487 13.1914 113.921 13.9564 115.354 16.8234 128.736 13.7644 130.361 10.7064 131.986 4.3974 119.656 4.2064 117.075"/>
    <path stroke="#81879D" stroke-width="2.4" d="M107.838,76.1506 C105.612,74.0976 97.459,71.9956 97.459,71.9956 C97.459,71.9956 97.411,66.3976 94.562,67.4026 C91.714,68.4086 89.359,74.2116 89.359,74.2116 C89.359,74.2116 80.311,76.7296 78.3,80.5836 C75.51,79.8956 71.207,78.6286 67.929,83.6666 C64.65,88.7056 74.781,92.6476 74.781,92.6476 C77.304,103.1146 72.548,111.7016 81.796,124.7806 C81.045,127.0716 72.416,128.7436 87.516,146.9376 C86.288,149.0886 82.569,147.9586 81.044,150.8886 C79.52,153.8196 82.919,155.3026 88.616,154.8006 C91.831,154.2756 95.52,152.4636 98.388,149.2766 C99.226,145.9256 96.229,145.5976 98.575,145.7646 C100.921,145.9326 110.473,147.9586 117.006,144.5916 C117.37,144.1636 121.535,147.9916 124.412,148.9586 C127.289,149.9256 134.795,147.6796 133.339,144.9436 C131.882,142.2086 125.067,141.6786 125.067,141.6786 C125.067,141.6786 126.014,136.0726 125.72,131.6656"/>
    <path stroke="#81879D" stroke-width="2" d="M91.0617,99.4066 C96.9677,105.0966 105.2467,103.0956 105.2467,103.0956 C105.2467,103.0956 107.1787,99.8026 110.4417,101.4196 C113.2897,102.5926 110.8157,107.8306 109.3077,108.3336 C108.3677,112.4856 89.7407,116.5806 86.4377,110.3716"/>
    <path stroke="#81879D" stroke-width="2.4" d="M95.4936,113.8013 C95.4936,113.8013 93.6386,120.2613 97.0726,124.6203 C100.5076,128.9803 120.2876,136.7213 126.7246,130.8523 C129.4056,128.1713 138.7396,113.0333 140.2906,106.9633 C141.8416,100.8923 144.4866,86.7833 144.6536,82.0913 C144.8216,77.4003 142.7406,64.7913 142.7406,64.7913 C142.7406,64.7913 151.5236,31.9913 153.0316,30.8183 C154.5396,29.6453 157.6206,28.1553 156.5506,24.7863 C155.4546,20.0713 144.8826,14.8053 137.2046,19.4883 C134.5176,21.7903 136.3706,24.4883 137.7836,26.2943 C139.2916,29.8133 128.4366,54.9693 125.7556,58.3203 C123.0746,61.6723 117.2016,66.1243 108.3496,76.1643 C99.4986,86.2053 97.1426,102.1703 97.1426,102.6733"/>
    <path stroke="#81879D" stroke-width="1.387" d="M138.2362,111.6486 C135.6102,121.0126 123.6962,123.3236 123.6962,123.3236 C123.3862,122.7036 109.4852,107.1636 121.7772,86.4306 C123.3032,88.7786 129.5552,90.6156 135.8802,87.0186 C135.8802,87.0186 138.8942,92.9236 143.0782,92.1606"/>
    <path stroke="#81879D" stroke-width="1.5" d="M125.756,58.3207 C125.486,63.9827 137.888,68.8347 143.481,65.1677"/>
    <path stroke="#81879D" d="M143.5537,29.81 C143.5537,29.81 147.6717,32.376 154.2357,29.989"/>
    <path stroke="#81879D" stroke-width="2" d="M74.7813,92.6481 C74.7813,92.6481 76.1333,93.1031 78.4673,92.4801"/>
    <path fill="#81879D" d="M94.388,87.1141 C93.894,88.5131 92.159,89.1771 90.512,88.5961 C88.865,88.0151 87.93,86.4101 88.424,85.0101 C88.917,83.6111 90.653,82.9481 92.3,83.5281 C93.947,84.1091 94.882,85.7151 94.388,87.1141"/>
    <path fill="#F2F2F6" d="M153.2295,25.1096 C152.8915,26.6606 149.5725,27.2546 145.8185,26.4356 C142.0635,25.6166 139.2945,23.6946 139.6325,22.1436 C139.9705,20.5926 143.2895,19.9986 147.0435,20.8176 C150.7985,21.6366 153.5675,23.5586 153.2295,25.1096"/>
    <path stroke="#81879D" stroke-width="1.5" d="M153.2295,25.1096 C152.8915,26.6606 149.5725,27.2546 145.8185,26.4356 C142.0635,25.6166 139.2945,23.6946 139.6325,22.1436 C139.9705,20.5926 143.2895,19.9986 147.0435,20.8176 C150.7985,21.6366 153.5675,23.5586 153.2295,25.1096 Z"/>
    <path fill="#F2F2F6" d="M155.7166,17.1362 C155.7166,17.1362 169.3966,-3.2978 173.9256,4.8172 C176.0016,9.9132 162.1786,10.0432 155.7166,17.1362"/>
    <path stroke="#81879D" stroke-width="1.5" d="M155.7166,17.1362 C155.7166,17.1362 169.3966,-3.2978 173.9256,4.8172 C176.0016,9.9132 162.1786,10.0432 155.7166,17.1362 Z"/>
    <path fill="#F2F2F6" d="M126.8737,1.0598 C124.3137,1.8958 137.4337,12.2498 137.4337,12.2498 C137.4337,12.2498 134.5967,-1.4622 126.8737,1.0598"/>
    <path stroke="#81879D" stroke-width="1.5" d="M126.8737,1.0598 C124.3137,1.8958 137.4337,12.2498 137.4337,12.2498 C137.4337,12.2498 134.5967,-1.4622 126.8737,1.0598 Z"/>
    <path fill="#F2F2F6" d="M144.4369,12.483 C144.0779,12.924 141.9989,5.01 144.2789,3.026 C146.5599,1.043 151.3719,3.972 144.4369,12.483"/>
    <path stroke="#81879D" stroke-width="1.5" d="M144.4369,12.483 C144.0779,12.924 141.9989,5.01 144.2789,3.026 C146.5599,1.043 151.3719,3.972 144.4369,12.483 Z"/>
    <path stroke="#81879D" stroke-width="2" d="M117.4855 144.864C117.0565 143.91 120.7965 142.252 122.0195 132.754M94.5441 143.6415C94.5441 143.6415 96.1511 145.4355 98.2731 145.7535M84.65 127.9884L80.971 123.5594M80.5815 82.3034C80.5815 82.3034 79.3355 80.8384 78.3005 80.5834"/>
    <path stroke="#81879D" stroke-width="1.5" d="M88.9425,74.7745 C88.9425,74.7745 96.4795,72.0045 98.0045,72.1175"/>
    <path stroke="#81879D" stroke-width="2.4" d="M75.8101 111.3064L69.1271 117.5434 69.2381 126.0084C69.2381 126.0084 73.1921 124.9694 74.6961 129.2394 76.2001 133.5084 71.2911 142.9704 70.0901 146.2744 68.8891 149.5784 71.8021 149.9314 75.2561 153.0854 78.7101 156.2394 70.0181 158.3094 67.9021 157.4184 65.7861 156.5274 64.2931 150.0814 64.2931 150.0814 57.4321 152.1834 45.5241 151.2834 44.1721 151.1334 42.8211 150.9824 41.4691 156.6894 39.9671 159.3924 37.7241 161.3174 30.3911 160.5094 29.2321 158.3084 29.1241 153.5504 36.9451 153.1864 37.4141 152.1844 33.1591 149.0734 30.9671 147.4934 27.7141 136.3744 26.5121 131.1194 32.4071 130.5114 32.4071 130.5114L32.5581 124.6544 18.7891 124.0534C19.2181 130.1034 16.2211 134.5904 16.2211 134.5904L19.1161 144.5034C19.1161 144.5034 36.2231 144.8524 19.7851 150.8514 3.3471 156.8504 16.1091 145.8394 16.1091 145.8394L12.6561 135.1464C12.6561 135.1464 3.8571 131.4714.2931 112.3134-1.0589 108.2584 12.7491 104.3914 13.9841 107.6844 15.2181 110.9774 17.8881 117.5954 17.8881 117.5954L34.0381 110.4934 34.8581 106.2304 33.7111 92.2244C33.7111 92.2244 32.1311 91.1704 31.6251 89.2594 30.9941 86.8744 31.6041 83.0094 32.8551 81.6754 35.1071 79.2724 41.3161 85.6564 41.7661 85.9564 46.8511 83.6834 52.2211 82.8014 55.7611 83.4604 55.7611 83.4604 58.5581 79.2094 60.6621 79.0054 62.1221 80.5464 60.2381 84.7554 60.2381 84.7554 60.2381 84.7554 68.8991 89.6774 69.3501 94.9334 69.8001 100.1894 67.1461 105.3294 67.1461 105.3294L75.1421 102.6184M144.5885 83.1828L153.5075 79.0128C153.5075 79.0128 156.6915 70.2298 158.4485 71.6568 159.6565 73.8528 159.6505 77.8168 162.1235 77.9758 164.5975 78.1348 174.2815 82.3248 174.2815 82.3248 174.2815 82.3248 181.1755 80.1108 182.1645 82.5268 183.1525 84.9418 180.4075 91.5298 180.4075 91.5298L176.1255 93.7258 175.9705 98.8838 186.5655 90.3768C186.5655 90.3768 183.4765 84.0118 186.1015 65.0968 187.7905 61.0828 201.8645 64.1868 201.2685 67.1558 196.8285 86.2638 193.1935 89.5178 193.1935 89.5178 193.1935 89.5178 195.3215 94.9748 191.6065 95.8118L189.6305 109.9748C189.6305 109.9748 205.8795 118.7588 187.6535 116.8918 169.4275 115.0258 185.7875 110.1478 185.7875 109.6458 185.7875 109.1438 187.1045 98.0078 187.1045 98.0078L175.4635 112.4328C175.4635 112.4328 174.5145 117.4428 176.3075 120.4608 180.1875 136.2158 175.6095 145.4018 174.2585 147.7438 172.9085 150.0858 179.6585 150.6988 176.4745 154.5408 175.3765 156.1878 169.4275 156.7468 167.1225 155.6488 164.8165 154.5508 165.8845 151.2388 165.4755 148.7318 154.9845 148.9338 145.2195 145.4758 144.4815 144.4228 142.5595 143.6628 147.3955 147.2898 142.1965 151.5218 140.7935 152.0148 137.4035 152.1318 135.4445 151.4698 131.8215 149.7128 136.8765 144.3878 136.9105 141.2348 132.2815 128.0648 133.0465 126.7048 136.2555 120.6828 136.4745 120.2438 137.5475 114.1728 137.5475 114.1728"/>
    <path fill="#81879D" d="M48.1259,97.4185 C46.9639,97.7955 45.5889,96.7645 45.0529,95.1155 C44.5179,93.4665 45.0259,91.8245 46.1869,91.4465 C47.3489,91.0695 48.7249,92.1005 49.2599,93.7495 C49.7949,95.3985 49.2879,97.0415 48.1259,97.4185"/>
    <path stroke="#81879D" stroke-width="1.5" d="M60.0915 95.7567C60.0915 95.7567 65.2505 96.5897 66.5015 94.0137M64.1324 96.2632C64.1324 96.2632 64.4584 96.9282 64.7834 99.3442"/>
    <path fill="#81879D" d="M165.0078,91.7478 C166.1118,92.2708 167.6078,91.4258 168.3508,89.8588 C169.0938,88.2928 168.8018,86.5978 167.6978,86.0748 C166.5948,85.5518 165.0978,86.3968 164.3548,87.9638 C163.6118,89.5298 163.9038,91.2248 165.0078,91.7478"/>
    <path stroke="#81879D" stroke-width="1.5" d="M153.355 88.5616C153.355 88.5616 148.132 88.7246 147.222 86.0086M149.2826 88.5444C149.2826 88.5444 148.8736 89.1624 148.2406 91.5164M38.4489 148.0112C38.4489 148.0112 42.1699 150.5432 44.1729 151.1332M64.2929 150.0819C64.2929 150.0819 71.8859 147.1689 68.7739 126.7619M64.6717 109.071L67.1217 104.597"/>
    <path stroke="#81879D" stroke-width="2" d="M32.8216,122.0523 L32.5576,126.6543"/>
    <path stroke="#81879D" stroke-width="1.5" d="M17.3519 116.818C18.2299 120.331 18.4499 123.955 18.4499 123.955M4.5141 117.0012C4.5141 117.0012 9.0741 132.5062 13.7871 130.6822 18.4991 128.8582 13.0271 113.8092 13.0271 113.8092 13.0271 113.8092 7.0981 113.3532 4.5141 117.0012z"/>
    <path stroke="#81879D" d="M4.6661 117.7612C4.6661 117.7612 9.2261 118.0652 13.3311 114.7212M.293 112.3135C.293 112.3135 7.379 112.1495 13.984 107.6845"/>
    <path stroke="#81879D" stroke-width="1.5" d="M188.3001,71.4127 C188.3001,71.4127 186.0761,86.5137 190.2161,86.8197 C194.5121,87.1367 196.7011,72.1607 196.7011,72.1607 C196.7011,72.1607 192.0081,69.3237 188.3001,71.4127 Z"/>
    <path stroke="#81879D" d="M188.0971 72.1325C188.0971 72.1325 191.7271 74.2745 196.5581 73.0745M186.5238 65.1688C186.7418 66.1018 192.8688 68.3288 200.7938 67.4598"/>
    <path stroke="#81879D" stroke-width="1.5" d="M33.6164 91.6721C33.6164 91.6721 35.1154 92.6941 36.3384 93.6261M41.452 85.9487C42.304 86.6947 42.836 87.9807 42.836 87.9807M55.6181 83.6502L60.6671 85.3332M153.3063 79.2898C153.3063 79.2898 158.1303 77.1638 161.3713 77.8588M137.9445 131.1673C137.9445 131.1673 138.4915 140.6753 145.0335 144.6513M165.4754 148.7321C165.4754 148.3851 168.4314 145.3351 167.2734 134.4561M171.296 148.3823C171.296 148.3823 173.884 148.8183 174.653 149.6503M186.8197 89.7618C186.8197 89.7618 188.8157 92.5348 187.6747 96.5008M191.6062 95.8116C191.6062 95.8116 188.2502 88.9726 193.1942 89.5176"/>
    <path stroke="#81879D" stroke-width="1.651" d="M121.6374,62.6007 C121.6374,62.6007 127.3374,75.6947 143.6434,70.7687"/>
    <path stroke="#81879D" stroke-width="1.5" d="M142.2967,98.6323 C142.2967,98.6323 141.8127,100.5173 144.8137,101.6203"/>
  </g>
</svg>
