<?xml version="1.0" encoding="UTF-8" standalone="no"?>
<svg width="639px" height="28px" viewBox="0 0 639 28" version="1.1" xmlns="http://www.w3.org/2000/svg" xmlns:xlink="http://www.w3.org/1999/xlink">
    <!-- Generator: Sketch 44 (41411) - http://www.bohemiancoding.com/sketch -->
    <title>Partner Logos</title>
    <desc>Created with Sketch.</desc>
    <defs></defs>
    <g id="Sign-Up-&amp;-Upgrade-Flows" stroke="none" stroke-width="1" fill="none" fill-rule="evenodd">
        <g id="Guest---Sign-Up-Page-Flow---1" transform="translate(-351.000000, -670.000000)" fill="#C4C7D0">
            <path d="M487.016,676.69 C484.672,676.69 483.972,678.784 483.972,678.784 C483.073,680.924 481.469,685.039 481.193,685.323 C480.109,683.989 477.676,679.637 475.92,676.794 C475.92,676.794 475.374,676.621 474.237,676.621 C471.684,676.621 470.555,677.981 470.555,677.981 L464.925,684.068 L468.971,690.667 C469.684,691.776 470.605,692.493 472.245,692.493 C473.685,692.493 474.821,691.937 474.821,691.937 L469.807,684.452 C470.776,683.385 471.861,682.234 473.398,680.755 C474.028,681.512 477.681,687.364 479.217,689.836 L475.748,697.355 C475.748,697.355 476.194,697.702 477.741,697.702 C479.91,697.702 480.532,696.083 480.532,696.083 L488.974,677.003 C488.974,677.003 488.268,676.69 487.016,676.69 L487.016,676.69 Z M460.564,673.981 L460.564,692.319 C460.564,692.319 460.994,692.423 461.595,692.423 C463.684,692.423 464.721,691.944 464.721,690.235 L464.721,671.376 C464.721,671.376 464.247,671.202 463.553,671.202 C461.578,671.202 460.564,672.475 460.564,673.981 L460.564,673.981 Z M455.882,683.111 C457.312,683.499 459.224,684.874 459.224,687.422 C459.224,689.044 458.649,690.557 457.031,691.501 C455.565,692.357 454.055,692.423 451.873,692.423 C449.396,692.423 446.514,692.075 446.514,692.075 L446.48,691.242 C446.48,688.608 447.907,688.429 449.297,688.429 C450.451,688.429 452.321,688.637 453.212,688.637 C454.388,688.637 455.136,688.32 455.136,687.492 C455.136,686.769 454.164,686.598 453.042,686.384 L451.156,686.024 C449.576,685.785 448.247,685.366 447.382,684.491 C446.977,684.083 446.067,683.095 446.067,681.448 C446.067,680.585 446.215,679.002 448.003,677.714 C449.348,676.746 451.207,676.551 453.934,676.551 C455.875,676.551 458.284,676.837 458.284,676.837 C458.284,676.837 458.366,677.319 458.366,677.766 C458.366,679.358 457.626,680.441 455.789,680.441 C454.646,680.441 453.133,680.267 452.217,680.267 C451.272,680.267 450.086,680.446 450.086,681.24 C450.063,681.951 450.795,682.133 451.998,682.337 C451.998,682.337 454.718,682.795 455.882,683.111 L455.882,683.111 Z M613.428,670 L613.065,694.099 L606.441,693.153 L605.346,673.482 L613.428,670 Z M611.834,690.02 C612.004,689.458 611.913,688.943 611.479,688.532 C611.3,688.363 611.076,688.232 610.855,688.118 C610.444,687.904 609.988,687.819 609.542,687.707 C609.249,687.634 608.958,687.552 608.717,687.358 C608.596,687.261 608.516,687.139 608.544,686.977 C608.573,686.804 608.68,686.689 608.847,686.642 C608.951,686.614 609.06,686.596 609.167,686.595 C609.943,686.591 610.719,686.589 611.494,686.596 C611.629,686.597 611.658,686.553 611.654,686.432 C611.646,686.218 611.653,686.004 611.653,685.791 C611.652,685.621 611.651,685.621 611.487,685.621 C610.753,685.62 610.019,685.609 609.286,685.626 C609.009,685.633 608.726,685.682 608.46,685.757 C608.052,685.873 607.701,686.085 607.565,686.524 C607.52,686.666 607.49,686.818 607.483,686.966 C607.463,687.39 607.568,687.771 607.907,688.058 C608.177,688.287 608.489,688.44 608.82,688.552 C609.291,688.711 609.771,688.844 610.239,689.009 C610.416,689.073 610.584,689.18 610.735,689.296 C610.956,689.466 610.927,689.928 610.573,690 C610.433,690.029 610.288,690.046 610.145,690.047 C609.294,690.051 608.443,690.05 607.592,690.047 C607.503,690.047 607.474,690.08 607.475,690.164 C607.478,690.399 607.478,690.634 607.474,690.868 C607.473,690.965 607.506,690.999 607.606,690.998 C608.067,690.993 608.528,690.995 608.989,690.995 C609.232,690.995 609.476,691.002 609.719,690.994 C610.057,690.983 610.4,690.99 610.732,690.938 C611.272,690.855 611.67,690.566 611.834,690.02 L611.834,690.02 Z M601.967,686.862 C601.608,686.562 601.19,686.457 600.729,686.481 C600.268,686.506 599.866,686.664 599.563,687.014 C599.034,687.626 598.981,688.326 599.246,689.062 C599.422,689.55 599.731,689.924 600.259,690.057 C600.452,690.106 600.653,690.122 600.851,690.153 C600.852,690.146 600.852,690.139 600.854,690.133 C600.891,690.133 600.929,690.134 600.967,690.133 C601.755,690.11 602.293,689.706 602.472,688.96 C602.54,688.68 602.561,688.381 602.555,688.091 C602.545,687.601 602.349,687.182 601.967,686.862 L601.967,686.862 Z M605.346,693.644 L596.09,693.201 L597.589,675.068 L604.782,674.651 L605.346,693.644 Z M602.07,690.851 C603.122,690.314 603.581,689.396 603.641,688.251 C603.633,687.75 603.542,687.332 603.341,686.977 C602.787,685.996 601.911,685.551 600.817,685.504 C600.308,685.483 599.832,685.641 599.401,685.912 C598.41,686.534 597.926,687.445 598.043,688.603 C598.154,689.695 598.772,690.471 599.793,690.883 C600.547,691.188 601.328,691.23 602.07,690.851 L602.07,690.851 Z M595.729,673.588 L595.614,692.165 L589.032,692.667 L584.852,675.418 L595.729,673.588 Z M594.46,689.716 C594.765,689.161 594.878,688.557 594.826,687.922 C594.766,687.182 594.463,686.57 593.882,686.104 C593.428,685.74 592.901,685.561 592.322,685.514 C591.794,685.472 591.298,685.557 590.83,685.808 C590.745,685.853 590.709,685.909 590.711,686.006 C590.717,686.266 590.713,686.526 590.714,686.786 C590.714,686.826 590.722,686.866 590.726,686.915 C590.756,686.91 590.765,686.911 590.772,686.907 C590.805,686.889 590.838,686.871 590.871,686.852 C591.221,686.647 591.584,686.491 592.002,686.478 C592.485,686.462 592.915,686.583 593.268,686.918 C593.885,687.503 593.999,688.522 593.551,689.307 C592.985,690.297 591.724,690.329 591.077,689.805 C590.598,689.418 590.378,688.902 590.369,688.299 C590.358,687.515 590.367,686.731 590.367,685.947 C590.368,685.062 590.367,684.177 590.372,683.292 C590.372,683.183 590.34,683.145 590.229,683.148 C589.994,683.156 589.759,683.151 589.524,683.151 C589.345,683.151 589.344,683.151 589.345,683.326 C589.345,685.003 589.342,686.681 589.351,688.359 C589.352,688.586 589.386,688.819 589.442,689.04 C589.751,690.277 590.888,691.189 592.272,691.1 C593.259,691.036 593.987,690.572 594.46,689.716 L594.46,689.716 Z M623.527,696.01 L613.986,695.912 L613.72,675.033 L620.028,674.271 L623.527,696.01 Z M619.058,690.939 C620.075,690.779 620.378,689.837 620.17,689.128 C620.037,688.677 619.718,688.397 619.321,688.185 C618.861,687.94 618.358,687.83 617.859,687.706 C617.558,687.631 617.256,687.55 617.015,687.339 C616.768,687.123 616.83,686.766 617.138,686.652 C617.245,686.613 617.366,686.596 617.482,686.595 C618.265,686.591 619.049,686.591 619.834,686.595 C619.939,686.596 619.971,686.565 619.967,686.461 C619.96,686.234 619.958,686.007 619.968,685.782 C619.974,685.654 619.935,685.616 619.807,685.618 C619.09,685.624 618.373,685.615 617.656,685.624 C617.427,685.627 617.194,685.648 616.972,685.702 C616.222,685.887 615.879,686.202 615.809,686.865 C615.756,687.371 615.884,687.814 616.316,688.129 C616.63,688.36 616.985,688.509 617.352,688.628 C617.778,688.766 618.209,688.886 618.63,689.037 C618.79,689.094 618.946,689.197 619.07,689.315 C619.3,689.532 619.217,689.894 618.918,689.991 C618.776,690.037 618.618,690.045 618.468,690.047 C617.616,690.051 616.765,690.05 615.914,690.047 C615.817,690.047 615.793,690.082 615.795,690.172 C615.799,690.403 615.801,690.633 615.794,690.864 C615.791,690.97 615.828,690.999 615.931,690.998 C616.392,690.993 616.853,690.996 617.315,690.996 C617.554,690.996 617.793,691.002 618.032,690.994 C618.374,690.983 618.721,690.992 619.058,690.939 L619.058,690.939 Z M630.614,675.812 L630.401,692.732 L623.5,693.033 L621.365,677.398 L630.614,675.812 Z M629.146,690.998 C629.268,691.002 629.302,690.962 629.301,690.842 C629.297,689.919 629.299,688.997 629.298,688.075 C629.298,687.941 629.293,687.806 629.277,687.674 C629.167,686.768 628.7,686.119 627.864,685.747 C627.363,685.525 626.835,685.474 626.292,685.515 C625.667,685.562 625.106,685.76 624.635,686.181 C624.122,686.639 623.868,687.225 623.796,687.9 C623.693,688.855 623.942,689.695 624.639,690.373 C625.127,690.848 625.722,691.094 626.404,691.11 C626.937,691.122 627.417,690.953 627.843,690.636 C627.881,690.608 627.904,690.538 627.905,690.486 C627.911,690.164 627.908,689.841 627.907,689.518 C627.907,689.486 627.901,689.454 627.892,689.384 C627.82,689.464 627.77,689.519 627.72,689.574 C626.997,690.364 625.976,690.256 625.362,689.685 C624.86,689.217 624.731,688.617 624.81,687.96 C624.879,687.383 625.17,686.946 625.687,686.678 C626.116,686.456 626.573,686.428 627.043,686.529 C627.726,686.677 628.281,687.217 628.261,688.056 C628.24,688.987 628.258,689.918 628.254,690.849 C628.253,690.964 628.287,691.002 628.404,690.998 C628.651,690.99 628.898,690.989 629.146,690.998 L629.146,690.998 Z M605.1,694.525 C605.098,694.411 605.014,694.33 604.899,694.331 C604.782,694.332 604.704,694.412 604.707,694.53 C604.709,694.641 604.797,694.727 604.907,694.728 C605.018,694.73 605.102,694.641 605.1,694.525 L605.1,694.525 Z M604.894,696.845 C605.063,696.845 605.063,696.845 605.063,696.672 C605.063,696.149 605.059,695.626 605.067,695.103 C605.068,694.959 604.991,694.966 604.893,694.966 C604.798,694.965 604.729,694.96 604.731,695.098 C604.739,695.637 604.734,696.178 604.734,696.717 C604.734,696.754 604.739,696.791 604.743,696.845 L604.894,696.845 Z M594.422,694.967 L594.041,694.967 C593.75,694.967 593.75,694.967 593.75,694.678 C593.75,694.476 593.75,694.476 593.543,694.481 C593.53,694.481 593.518,694.482 593.505,694.481 C593.434,694.477 593.413,694.512 593.414,694.581 C593.415,695.146 593.41,695.712 593.416,696.278 C593.42,696.592 593.574,696.792 593.857,696.831 C594.04,696.857 594.23,696.836 594.423,696.836 L594.423,696.553 C594.413,696.543 594.41,696.538 594.406,696.538 C594.268,696.536 594.13,696.536 593.993,696.53 C593.825,696.523 593.751,696.445 593.75,696.278 L593.75,695.41 C593.75,695.37 593.754,695.33 593.756,695.283 L594.422,695.283 L594.422,694.967 Z M624.558,694.977 C624.552,694.996 624.545,695.008 624.545,695.02 C624.545,695.397 624.538,695.774 624.548,696.151 C624.553,696.328 624.609,696.496 624.738,696.631 C624.965,696.866 625.343,696.948 625.656,696.827 C625.958,696.71 626.139,696.442 626.143,696.091 C626.147,695.785 626.144,695.479 626.144,695.173 C626.144,694.956 626.144,694.959 625.922,694.965 C625.844,694.967 625.821,694.996 625.823,695.07 C625.826,695.229 625.826,695.389 625.823,695.548 C625.819,695.757 625.827,695.968 625.798,696.174 C625.766,696.409 625.549,696.575 625.33,696.566 C625.089,696.556 624.896,696.378 624.883,696.126 C624.867,695.829 624.872,695.532 624.87,695.234 C624.868,694.941 624.869,694.941 624.558,694.977 L624.558,694.977 Z M596.898,694.967 C596.814,694.967 596.751,694.971 596.689,694.966 C596.602,694.959 596.57,694.994 596.571,695.081 C596.577,695.449 596.568,695.819 596.584,696.186 C596.602,696.589 596.913,696.862 597.349,696.881 C597.757,696.898 598.116,696.63 598.153,696.243 C598.185,695.915 598.173,695.583 598.179,695.252 C598.181,695.162 598.179,695.071 598.179,694.976 L597.842,694.976 L597.842,695.121 C597.842,695.443 597.845,695.766 597.841,696.088 C597.838,696.325 597.645,696.538 597.421,696.563 C597.184,696.589 596.973,696.434 596.915,696.188 C596.9,696.124 596.899,696.055 596.898,695.989 C596.897,695.655 596.898,695.32 596.898,694.967 L596.898,694.967 Z M591.1,694.971 L590.973,694.971 C590.705,694.971 590.436,694.961 590.168,694.974 C589.798,694.994 589.625,695.199 589.662,695.546 C589.681,695.732 589.802,695.84 589.957,695.907 C590.125,695.979 590.304,696.027 590.476,696.091 C590.578,696.128 590.684,696.163 590.77,696.225 C590.816,696.257 590.854,696.35 590.841,696.404 C590.829,696.455 590.749,696.494 590.694,696.53 C590.673,696.543 590.637,696.536 590.608,696.535 C590.327,696.535 590.046,696.537 589.765,696.531 C589.674,696.529 589.644,696.563 589.651,696.647 C589.654,696.68 589.653,696.714 589.652,696.748 C589.649,696.814 589.672,696.847 589.746,696.846 C590.057,696.842 590.367,696.85 590.677,696.842 C590.944,696.835 591.13,696.696 591.18,696.485 C591.241,696.231 591.147,696.017 590.901,695.886 C590.791,695.828 590.669,695.791 590.551,695.751 C590.436,695.714 590.316,695.691 590.202,695.649 C590.1,695.612 589.983,695.563 590.008,695.425 C590.032,695.288 590.153,695.282 590.266,695.282 C590.338,695.283 590.409,695.283 590.48,695.283 L591.1,695.283 L591.1,694.971 L591.1,694.971 Z M613.002,694.975 C612.673,694.975 612.359,694.972 612.046,694.977 C611.986,694.978 611.924,695.004 611.865,695.024 C611.677,695.086 611.575,695.219 611.562,695.413 C611.549,695.598 611.608,695.757 611.774,695.852 C611.89,695.917 612.015,695.967 612.14,696.014 C612.296,696.073 612.459,696.113 612.613,696.177 C612.708,696.215 612.792,696.286 612.76,696.408 C612.729,696.524 612.628,696.536 612.528,696.536 C612.256,696.536 611.983,696.534 611.711,696.533 L611.57,696.533 L611.57,696.842 C611.927,696.842 612.274,696.853 612.621,696.838 C612.888,696.827 613.051,696.679 613.098,696.452 C613.147,696.217 613.041,696.001 612.805,695.883 C612.694,695.827 612.573,695.79 612.455,695.751 C612.325,695.706 612.19,695.675 612.062,695.626 C611.973,695.593 611.895,695.532 611.921,695.418 C611.947,695.307 612.038,695.285 612.135,695.284 C612.286,695.281 612.437,695.283 612.588,695.283 L613.002,695.283 L613.002,694.975 L613.002,694.975 Z M608.436,696.881 C608.96,696.907 609.387,696.495 609.416,695.933 C609.445,695.385 609.038,694.95 608.472,694.922 C607.954,694.897 607.485,695.324 607.457,695.847 C607.427,696.413 607.842,696.851 608.436,696.881 L608.436,696.881 Z M609.067,695.901 C609.062,696.328 608.827,696.574 608.438,696.569 C607.961,696.562 607.812,696.216 607.804,695.88 C607.796,695.511 608.091,695.232 608.451,695.236 C608.815,695.241 609.072,695.517 609.067,695.901 L609.067,695.901 Z M629.942,694.967 C629.838,694.967 629.776,694.974 629.715,694.965 C629.596,694.95 629.521,694.99 629.467,695.103 C629.405,695.235 629.325,695.359 629.246,695.482 C629.137,695.653 628.99,695.701 628.777,695.634 L628.777,694.1 L628.453,694.1 L628.453,696.837 L628.782,696.837 L628.782,696.416 L628.782,695.976 L628.997,695.976 C629.428,695.976 629.498,696.046 629.498,696.481 L629.498,696.835 L629.819,696.835 L629.819,696.324 C629.818,695.978 629.751,695.877 629.435,695.744 C629.431,695.742 629.43,695.731 629.439,695.755 C629.606,695.493 629.763,695.248 629.942,694.967 L629.942,694.967 Z M601.808,695.39 C601.703,695.35 601.613,695.308 601.517,695.283 C601.018,695.151 600.622,695.512 600.704,696.02 C600.759,696.353 601.003,696.571 601.331,696.579 C601.63,696.586 601.882,696.366 601.941,696.035 C601.96,695.928 601.968,695.818 601.968,695.71 C601.971,695.178 601.969,694.645 601.969,694.092 C602.062,694.092 602.149,694.085 602.234,694.097 C602.259,694.101 602.291,694.161 602.292,694.197 C602.298,694.377 602.295,694.557 602.295,694.737 C602.295,695.132 602.301,695.526 602.293,695.92 C602.285,696.311 602.114,696.622 601.76,696.795 C601.42,696.962 601.069,696.94 600.762,696.71 C600.432,696.463 600.325,696.108 600.392,695.715 C600.454,695.346 600.664,695.075 601.035,694.966 C601.267,694.899 601.501,694.924 601.724,695.016 C601.761,695.031 601.798,695.09 601.804,695.133 C601.818,695.214 601.808,695.298 601.808,695.39 L601.808,695.39 Z M821.441,673.453 C819.69,673.453 818.27,674.874 818.27,676.625 C818.27,678.377 819.69,679.797 821.441,679.797 C823.193,679.797 824.614,678.377 824.614,676.625 C824.614,674.874 823.193,673.453 821.441,673.453 L821.441,673.453 Z M811.152,673.453 C809.401,673.453 807.98,674.874 807.98,676.625 C807.98,678.377 809.401,679.797 811.152,679.797 C812.903,679.797 814.324,678.377 814.324,676.625 C814.324,674.874 812.903,673.453 811.152,673.453 L811.152,673.453 Z M821.437,693.452 C823.151,693.452 826.154,688.115 826.154,683.211 C826.154,681.601 825.775,679.877 825.559,679.21 C824.744,680.637 823.21,681.604 821.454,681.609 C822.632,683.578 822.85,686.305 821.437,689.598 C820.726,689.021 818.452,684.97 816.297,684.97 C814.141,684.97 811.868,689.021 811.155,689.598 C809.743,686.305 809.961,683.578 811.14,681.609 C809.382,681.604 807.849,680.637 807.035,679.21 C806.819,679.877 806.439,681.601 806.439,683.211 C806.439,688.115 809.442,693.452 811.155,693.452 C814.013,693.452 814.248,688.683 816.297,688.683 C818.346,688.683 818.58,693.452 821.437,693.452 L821.437,693.452 Z M876.146,683.037 C876.401,683.376 876.528,683.79 876.528,684.27 L876.528,684.391 L876.528,686.742 L876.528,689.577 C876.528,689.911 876.401,690.054 876.068,690.054 L874.607,690.054 C874.258,690.054 874.194,689.911 874.146,689.577 L874.115,689.34 C873.654,689.72 872.924,690.181 871.892,690.181 C870.288,690.181 869.558,689.197 869.558,688.149 L869.558,687.32 C869.558,686.24 870.447,685.272 872.098,685.272 L874.036,685.272 L874.036,684.549 C874.036,684.508 874.031,684.471 874.028,684.434 C874.026,684.409 874.024,684.383 874.02,684.36 C874.016,684.335 874.009,684.314 874.003,684.291 C873.92,684.006 873.659,683.868 873.274,683.826 C873.227,683.823 873.183,683.819 873.131,683.819 L873.131,683.814 C873.079,683.811 873.027,683.808 872.972,683.808 L870.654,683.808 C870.321,683.808 870.177,683.665 870.177,683.332 L870.177,682.449 C870.177,682.115 870.321,681.988 870.654,681.988 L873.043,681.988 C873.206,681.988 873.362,681.993 873.512,682.001 C874.864,682.052 875.707,682.417 876.146,683.037 L876.146,683.037 Z M874.036,686.955 L872.575,686.955 C872.115,686.955 872.035,687.209 872.035,687.447 L872.035,687.8 C872.035,688.164 872.337,688.212 872.575,688.212 C873.114,688.212 873.67,687.878 874.036,687.625 L874.036,686.955 Z M867.993,682.115 C868.326,682.115 868.454,682.258 868.454,682.591 L868.454,690.737 C868.454,692.246 867.247,693.213 864.85,693.213 L862.579,693.213 C862.245,693.213 862.103,693.087 862.103,692.753 L862.103,691.626 C862.103,691.292 862.245,691.149 862.579,691.149 L864.85,691.149 C865.5,691.149 865.913,690.975 865.913,690.451 L865.913,689.372 C865.453,689.705 864.707,690.181 863.532,690.181 C861.928,690.181 861.181,689.244 861.181,687.736 L861.181,684.433 C861.181,682.925 861.928,681.989 863.532,681.989 C864.785,681.989 865.548,682.528 865.992,682.877 L866.025,682.591 C866.072,682.258 866.135,682.115 866.485,682.115 L867.993,682.115 L867.993,682.115 Z M865.913,684.815 C865.58,684.576 864.945,684.164 864.341,684.164 C863.738,684.164 863.722,684.513 863.722,684.83 L863.722,687.339 C863.722,687.657 863.738,688.006 864.341,688.006 C864.945,688.006 865.58,687.593 865.913,687.355 L865.913,684.815 Z M856.275,681.988 C858.673,681.988 859.912,682.957 859.912,684.465 L859.912,687.704 C859.912,689.213 858.673,690.181 856.275,690.181 C853.878,690.181 852.64,689.213 852.64,687.704 L852.64,684.465 C852.64,682.957 853.878,681.988 856.275,681.988 L856.275,681.988 Z M857.371,684.671 C857.371,684.147 856.926,683.973 856.275,683.973 C855.625,683.973 855.18,684.147 855.18,684.671 L855.18,687.482 C855.18,688.021 855.625,688.196 856.275,688.196 C856.926,688.196 857.371,688.021 857.371,687.482 L857.371,684.671 Z M847.734,681.988 C850.131,681.988 851.37,682.957 851.37,684.465 L851.37,687.704 C851.37,689.213 850.131,690.181 847.734,690.181 C845.336,690.181 844.098,689.213 844.098,687.704 L844.098,684.465 C844.098,682.957 845.336,681.988 847.734,681.988 L847.734,681.988 Z M848.829,684.671 C848.829,684.147 848.384,683.973 847.734,683.973 C847.083,683.973 846.638,684.147 846.638,684.671 L846.638,687.482 C846.638,688.021 847.083,688.196 847.734,688.196 C848.384,688.196 848.829,688.021 848.829,687.482 L848.829,684.671 Z M843.543,679.257 C843.876,679.257 843.971,679.432 843.892,679.734 L841.415,689.577 C841.336,689.911 841.161,690.054 840.827,690.054 L839.161,690.054 C838.875,690.054 838.716,689.879 838.637,689.577 L837.494,685.736 C837.382,685.276 837.287,684.762 837.271,684.571 C837.255,684.731 837.128,685.324 837.033,685.752 L835.89,689.577 C835.811,689.911 835.636,690.054 835.302,690.054 L833.635,690.054 C833.349,690.054 833.191,689.879 833.111,689.577 L830.634,679.734 C830.555,679.432 830.65,679.257 830.984,679.257 L832.73,679.257 C833.064,679.257 833.206,679.432 833.286,679.734 L834.365,684.179 C834.477,684.672 834.588,685.434 834.62,685.592 C834.635,685.481 834.747,685.253 834.905,684.618 L836.032,681.05 C836.112,680.749 836.255,680.574 836.589,680.574 L838.192,680.574 C838.525,680.574 838.669,680.749 838.747,681.05 L839.828,684.602 C839.97,685.174 840.082,685.704 840.097,685.879 C840.113,685.752 840.208,684.862 840.383,684.179 L841.495,679.734 C841.574,679.432 841.717,679.257 842.05,679.257 L843.543,679.257 L843.543,679.257 Z M683.248,686.544 C682.901,685.789 682.7,685.423 682.349,685.215 C682.676,685.056 682.947,684.834 683.158,684.532 C683.502,684.043 683.674,683.333 683.674,682.702 C683.674,681.725 683.371,681.04 682.765,680.593 C682.159,680.144 681.403,679.937 680.498,679.937 L676.095,679.937 L676.095,688.949 L678.581,688.949 L678.581,685.686 L678.57,685.686 L679.202,685.674 L679.202,685.669 C679.432,685.669 680.297,685.719 680.684,686.562 C681.137,687.551 681.807,688.949 681.807,688.949 L684.377,688.949 C684.377,688.949 683.591,687.288 683.248,686.544 L683.248,686.544 Z M678.581,684.133 L678.581,681.646 L679.553,681.646 L679.98,681.646 L680.089,681.646 C680.444,681.646 680.62,681.758 680.801,681.924 C680.998,682.104 681.2,682.389 681.2,682.839 C681.2,683.283 681.055,683.669 680.805,683.884 C680.633,684.031 680.444,684.133 680.089,684.133 L679.98,684.133 L679.553,684.133 L678.581,684.133 Z M670.197,683.15 C670.16,684.094 669.367,684.829 668.423,684.793 C667.48,684.756 666.744,683.962 666.781,683.02 C666.817,682.076 667.611,681.34 668.554,681.376 C669.497,681.414 670.232,682.207 670.197,683.15 L670.197,683.15 Z M667.713,677.028 C663.613,676.871 660.162,680.067 660.004,684.166 C659.845,688.266 663.041,691.718 667.142,691.876 C671.242,692.035 674.694,688.839 674.852,684.738 C675.009,680.638 671.814,677.187 667.713,677.028 L667.713,677.028 Z M667.227,689.639 C664.363,689.529 662.132,687.116 662.241,684.252 C662.351,681.388 664.764,679.156 667.628,679.266 C670.493,679.376 672.724,681.787 672.613,684.652 C672.504,687.517 670.092,689.749 667.227,689.639 L667.227,689.639 Z M697.944,681.914 L697.944,683.441 L701.554,683.441 L701.554,685.454 L697.944,685.454 L697.944,687.03 L702.167,687.03 L702.323,689.042 L695.568,689.042 L695.568,679.902 L702.323,679.902 L702.167,681.914 L697.944,681.914 Z M650.093,679.882 L652.47,679.882 L656.342,685.47 L656.367,685.47 L656.367,679.882 L658.743,679.882 L658.743,689.021 L656.367,689.021 L652.493,683.421 L652.47,683.421 L652.47,689.021 L650.093,689.021 L650.093,679.882 Z M716.701,689.144 C714.238,689.144 713.298,688.589 713.298,688.589 L713.962,686.495 C713.962,686.495 715.023,687.051 716.671,687.051 C717.38,687.051 717.518,686.571 717.518,686.295 C717.518,685.065 713.362,685.451 713.362,682.417 C713.362,680.692 714.454,679.692 715.963,679.692 C718.457,679.692 719.672,679.784 719.672,679.784 L719.179,681.769 C719.179,681.769 717.793,681.678 716.654,681.678 C716.1,681.678 715.963,682.003 715.963,682.324 C715.963,683.526 720.133,682.895 720.133,686.174 C720.133,688.007 718.795,689.144 716.701,689.144 L716.701,689.144 Z M711.844,685.903 C711.844,688.189 710.025,689.153 707.927,689.153 C705.422,689.153 703.976,688.125 703.976,685.903 L703.976,679.888 L706.48,679.888 L706.48,685.951 C706.48,686.807 707.009,687.178 707.927,687.178 C708.828,687.178 709.339,686.807 709.339,685.919 L709.339,679.888 L711.844,679.888 L711.844,685.903 Z M694.183,684.434 C694.183,687.052 692.669,689.014 689.872,689.014 L685.749,689.014 L685.749,679.883 L689.685,679.883 C692.422,679.883 694.183,681.229 694.183,684.434 L694.183,684.434 Z M691.737,684.465 C691.737,682.227 690.51,681.886 689.481,681.886 L688.201,681.886 L688.201,687.014 L689.387,687.014 C690.979,687.014 691.737,685.941 691.737,684.465 L691.737,684.465 Z M410.93,689.775 L414.478,689.775 L414.478,679.13 L410.93,679.13 L410.93,689.775 Z M382.641,689.775 L386.386,689.775 L386.386,679.13 L382.641,679.13 L382.641,689.775 Z M370.812,679.327 L370.812,689.775 L374.163,689.775 L374.163,684.354 C374.163,684.354 377.811,684.453 377.811,689.775 L381.26,689.775 L381.26,679.327 L377.909,679.327 L377.909,681.693 C377.909,681.693 376.135,679.327 370.812,679.327 L370.812,679.327 Z M397.426,682.678 L397.426,679.228 L392.103,679.228 C392.103,679.228 387.471,679.82 387.471,684.354 C387.471,688.888 392.103,689.775 392.103,689.775 L397.426,689.775 L397.426,686.325 L392.399,686.325 C392.399,686.325 391.118,686.03 391.118,684.354 C391.118,682.678 392.301,682.678 392.301,682.678 L397.426,682.678 Z M402.65,686.227 L402.65,679.13 L398.707,679.13 L398.707,686.227 L398.707,689.775 L402.65,689.775 L409.648,689.775 L409.648,686.227 L402.65,686.227 Z M423.546,679.129 C423.546,679.129 426.503,679.919 426.503,682.777 C426.503,685.635 423.546,686.325 423.546,686.325 L419.407,686.325 L419.407,689.775 L415.759,689.775 L415.759,679.129 L423.546,679.129 L423.546,679.129 Z M422.293,683.469 C422.293,683.469 422.793,683.564 422.793,682.703 C422.793,681.842 422.282,681.905 422.282,681.905 L419.209,681.905 L419.241,683.469 L422.293,683.469 L422.293,683.469 Z M365.983,689.775 L369.531,689.775 L369.531,679.13 L365.983,679.13 L365.983,689.775 Z M358.393,682.678 L360.956,679.327 L364.701,679.327 L364.701,689.775 L361.152,689.775 L361.152,686.424 L358.393,689.775 L355.731,686.523 L355.731,689.775 L352.183,689.775 L352.183,682.383 L351,682.383 L351,679.327 L355.929,679.327 L358.393,682.678 Z M781.628,692.304 C782.839,692.304 783.734,692.873 783.734,694.422 C783.734,695.911 782.657,696.541 781.568,696.541 L780.303,696.541 L780.303,692.304 L781.628,692.304 L781.628,692.304 Z M781.568,695.718 C782.457,695.718 782.863,695.197 782.863,694.422 C782.863,693.557 782.494,693.127 781.599,693.127 L781.15,693.127 L781.15,695.718 L781.568,695.718 L781.568,695.718 Z M778.396,694.683 C778.396,695.36 778.065,695.779 777.526,695.779 C776.986,695.779 776.66,695.348 776.66,694.671 L776.66,692.304 L775.813,692.304 L775.813,694.683 C775.813,695.917 776.503,696.607 777.526,696.607 C778.603,696.607 779.244,695.899 779.244,694.671 L779.244,692.304 L778.396,692.304 L778.396,694.683 Z M773.138,692.238 C774.294,692.238 774.978,693.134 774.978,694.422 C774.978,695.711 774.294,696.607 773.138,696.607 C771.982,696.607 771.298,695.711 771.298,694.422 C771.298,693.134 771.982,692.238 773.138,692.238 L773.138,692.238 Z M773.138,695.766 C773.821,695.766 774.106,695.179 774.106,694.423 C774.106,693.667 773.821,693.079 773.138,693.079 C772.454,693.079 772.169,693.667 772.169,694.423 C772.169,695.179 772.454,695.766 773.138,695.766 L773.138,695.766 Z M769.207,692.304 L768.36,692.304 L768.36,696.541 L770.906,696.541 L770.906,695.705 L769.207,695.705 L769.207,692.304 Z M766.065,693.079 C766.446,693.079 766.688,693.249 766.839,693.539 L767.626,693.176 C767.36,692.625 766.875,692.238 766.076,692.238 C764.97,692.238 764.195,693.133 764.195,694.423 C764.195,695.76 764.939,696.606 766.046,696.606 C766.815,696.606 767.323,696.25 767.614,695.651 L766.9,695.226 C766.676,695.602 766.452,695.766 766.07,695.766 C765.435,695.766 765.066,695.184 765.066,694.423 C765.066,693.636 765.429,693.079 766.065,693.079 L766.065,693.079 Z M761.338,692.304 C762.548,692.304 763.444,692.873 763.444,694.422 C763.444,695.911 762.367,696.541 761.277,696.541 L760.013,696.541 L760.013,692.304 L761.338,692.304 L761.338,692.304 Z M761.277,695.718 C762.167,695.718 762.573,695.197 762.573,694.422 C762.573,693.557 762.204,693.127 761.308,693.127 L760.86,693.127 L760.86,695.718 L761.277,695.718 L761.277,695.718 Z M758.089,694.096 C758.089,694.332 758.1,694.864 758.1,695.022 C758.046,694.913 757.907,694.701 757.804,694.543 L756.303,692.303 L755.492,692.303 L755.492,696.54 L756.327,696.54 L756.327,694.676 C756.327,694.44 756.316,693.908 756.316,693.75 C756.37,693.859 756.51,694.071 756.612,694.229 L758.167,696.54 L758.924,696.54 L758.924,692.303 L758.089,692.303 L758.089,694.096 Z M753.587,694.683 C753.587,695.36 753.253,695.779 752.715,695.779 C752.176,695.779 751.85,695.348 751.85,694.671 L751.85,692.304 L751.002,692.304 L751.002,694.683 C751.002,695.917 751.693,696.607 752.715,696.607 C753.792,696.607 754.434,695.899 754.434,694.671 L754.434,692.304 L753.587,692.304 L753.587,694.683 Z M748.327,692.238 C749.483,692.238 750.167,693.134 750.167,694.422 C750.167,695.711 749.483,696.607 748.327,696.607 C747.172,696.607 746.488,695.711 746.488,694.422 C746.488,693.134 747.172,692.238 748.327,692.238 L748.327,692.238 Z M748.327,695.766 C749.012,695.766 749.296,695.179 749.296,694.423 C749.296,693.667 749.012,693.079 748.327,693.079 C747.644,693.079 747.358,693.667 747.358,694.423 C747.358,695.179 747.644,695.766 748.327,695.766 L748.327,695.766 Z M744.429,693.95 C743.757,693.793 743.576,693.708 743.576,693.442 C743.576,693.255 743.727,693.06 744.181,693.06 C744.568,693.06 744.871,693.218 745.143,693.496 L745.754,692.903 C745.355,692.486 744.87,692.238 744.212,692.238 C743.375,692.238 742.698,692.71 742.698,693.479 C742.698,694.314 743.243,694.562 744.023,694.743 C744.822,694.924 744.967,695.046 744.967,695.319 C744.967,695.639 744.73,695.779 744.229,695.779 C743.824,695.779 743.442,695.64 743.146,695.294 L742.535,695.839 C742.855,696.31 743.473,696.607 744.181,696.607 C745.337,696.607 745.846,696.062 745.846,695.258 C745.846,694.337 745.101,694.108 744.429,693.95 L744.429,693.95 Z M762.812,671.627 C762.471,671.627 762.191,671.907 762.186,672.251 L761.93,685.04 L762.186,689.681 C762.191,690.02 762.471,690.3 762.812,690.3 C763.152,690.3 763.432,690.02 763.437,689.676 L763.437,689.682 L763.715,685.04 L763.437,672.25 C763.432,671.907 763.152,671.627 762.812,671.627 L762.812,671.627 Z M780.322,678.986 C779.544,678.986 778.802,679.143 778.126,679.427 C777.674,674.311 773.384,670.297 768.15,670.297 C766.87,670.297 765.621,670.549 764.519,670.976 C764.09,671.141 763.977,671.312 763.972,671.643 L763.972,689.661 C763.977,690.008 764.247,690.298 764.586,690.332 C764.6,690.333 780.22,690.341 780.321,690.341 C783.456,690.341 785.998,687.799 785.998,684.664 C785.998,681.528 783.457,678.986 780.322,678.986 L780.322,678.986 Z M755.545,689.853 L755.545,689.851 L755.872,685.036 L755.545,674.541 C755.537,674.28 755.331,674.076 755.078,674.076 C754.822,674.076 754.617,674.28 754.61,674.541 L754.319,685.035 L754.61,689.852 C754.618,690.111 754.823,690.315 755.078,690.315 C755.332,690.315 755.536,690.111 755.545,689.851 L755.545,689.853 Z M751.288,690.315 C751.495,690.315 751.667,690.146 751.677,689.93 L752.058,685.034 L751.677,675.664 C751.666,675.448 751.495,675.279 751.288,675.279 C751.078,675.279 750.907,675.448 750.899,675.664 L750.561,685.034 L750.899,689.932 C750.907,690.146 751.078,690.315 751.288,690.315 L751.288,690.315 Z M758.927,674.64 C758.627,674.64 758.386,674.878 758.38,675.184 L758.136,685.037 L758.38,689.778 C758.386,690.08 758.626,690.319 758.927,690.319 C759.227,690.319 759.466,690.081 759.473,689.775 L759.473,689.779 L759.747,685.038 L759.473,675.183 C759.466,674.878 759.227,674.64 758.927,674.64 L758.927,674.64 Z M743.886,689.995 C744.006,689.995 744.103,689.9 744.118,689.769 L744.607,685.03 L744.118,680.112 C744.103,679.98 744.006,679.885 743.886,679.885 C743.765,679.885 743.667,679.981 743.655,680.112 L743.224,685.03 L743.655,689.768 C743.667,689.899 743.764,689.995 743.886,689.995 L743.886,689.995 Z M747.557,690.265 C747.722,690.265 747.855,690.133 747.867,689.96 L748.303,685.031 L747.867,680.342 C747.855,680.169 747.722,680.038 747.557,680.038 C747.391,680.038 747.258,680.17 747.247,680.344 L746.863,685.031 L747.247,689.96 C747.258,690.133 747.391,690.265 747.557,690.265 L747.557,690.265 Z M756.995,690.31 C757.272,690.31 757.494,690.088 757.502,689.805 L757.502,689.808 L757.803,685.036 L757.501,674.81 C757.494,674.527 757.271,674.306 756.994,674.306 C756.716,674.306 756.493,674.527 756.488,674.81 L756.22,685.037 L756.488,689.808 C756.493,690.088 756.717,690.31 756.995,690.31 L756.995,690.31 Z M760.874,690.328 C761.191,690.328 761.453,690.066 761.459,689.745 L761.459,689.748 L761.459,689.745 L761.706,685.038 L761.459,673.313 C761.454,672.991 761.191,672.729 760.874,672.729 C760.555,672.729 760.293,672.991 760.288,673.313 L760.067,685.034 C760.067,685.042 760.288,689.748 760.288,689.748 C760.293,690.066 760.556,690.328 760.874,690.328 L760.874,690.328 Z M753.175,690.305 C753.406,690.305 753.593,690.119 753.603,689.881 L753.957,685.036 L753.604,674.882 C753.594,674.644 753.407,674.458 753.176,674.458 C752.943,674.458 752.755,674.645 752.747,674.883 L752.433,685.035 L752.747,689.882 C752.755,690.119 752.943,690.305 753.175,690.305 L753.175,690.305 Z M745.714,679.711 C745.571,679.711 745.455,679.825 745.443,679.978 L745.037,685.031 L745.443,689.919 C745.454,690.071 745.571,690.185 745.714,690.185 C745.856,690.185 745.973,690.071 745.985,689.919 L746.447,685.031 L745.985,679.977 C745.973,679.825 745.856,679.711 745.714,679.711 L745.714,679.711 Z M749.415,677.061 C749.228,677.061 749.075,677.213 749.066,677.407 L748.704,685.033 L749.066,689.961 C749.075,690.154 749.228,690.305 749.415,690.305 C749.6,690.305 749.753,690.154 749.764,689.96 L749.764,689.962 L750.173,685.033 L749.764,677.407 C749.753,677.213 749.6,677.061 749.415,677.061 L749.415,677.061 Z M742.265,680.884 C742.249,680.774 742.17,680.698 742.073,680.698 C741.976,680.698 741.894,680.777 741.881,680.884 C741.881,680.885 741.427,685.03 741.427,685.03 L741.881,689.082 C741.894,689.191 741.975,689.27 742.073,689.27 C742.17,689.27 742.249,689.193 742.265,689.084 L742.781,685.03 L742.265,680.884 Z M740.367,682.285 C740.46,682.285 740.537,682.359 740.551,682.465 L740.951,685.03 L740.551,687.55 L740.551,687.549 L740.551,687.55 C740.536,687.656 740.46,687.729 740.367,687.729 C740.271,687.729 740.194,687.655 740.182,687.549 L739.844,685.03 L740.182,682.465 C740.194,682.359 740.271,682.285 740.367,682.285 L740.367,682.285 Z M548.055,692.642 L565.437,692.642 L565.437,676.263 L548.055,676.263 L548.055,692.642 Z M561.997,687.151 C559.334,688.852 557.369,688.614 557.369,688.614 C552.69,688.391 552.848,684.452 552.848,684.452 C553.046,680.171 557.422,680.257 557.422,680.257 C559.769,680.283 561.891,681.588 561.891,681.588 L561.891,679.413 C559.967,678.609 558.635,678.477 558.635,678.477 C556.407,678.266 555.168,678.74 555.168,678.74 C550.527,680.164 550.673,684.452 550.673,684.452 C550.804,688.622 554.285,689.894 554.285,689.894 C558.424,691.528 561.997,689.405 561.997,689.405 L561.997,687.151 Z M507.967,692.642 L525.349,692.642 L525.349,676.263 L507.967,676.263 L507.967,692.642 Z M521.222,687.019 C521.222,687.019 521.315,684.752 518.652,684.08 C518.652,684.08 520.168,683.434 520.155,681.72 C520.155,681.72 520.385,678.912 516.664,678.569 L512.535,678.569 L512.535,690.341 L517.268,690.341 C517.268,690.341 521.222,690.355 521.222,687.019 L521.222,687.019 Z M516.846,685.305 L514.631,685.305 L514.631,688.522 L516.846,688.522 C516.846,688.522 519.061,688.627 519.061,686.848 C519.061,686.848 519.126,685.293 516.846,685.305 L516.846,685.305 Z M518.006,681.799 C518.006,681.799 518.072,680.493 516.318,680.402 L514.632,680.402 L514.632,683.447 L516.068,683.447 C516.068,683.447 518.006,683.42 518.006,681.799 L518.006,681.799 Z M538.044,681.799 C538.044,681.799 538.11,680.493 536.356,680.402 L534.669,680.402 L534.669,683.447 L536.106,683.447 C536.106,683.447 538.044,683.42 538.044,681.799 L538.044,681.799 Z M528.011,692.642 L545.393,692.642 L545.393,676.263 L528.011,676.263 L528.011,692.642 Z M541.261,687.019 C541.261,687.019 541.352,684.752 538.69,684.08 C538.69,684.08 540.205,683.434 540.193,681.72 C540.193,681.72 540.423,678.912 536.702,678.569 L532.573,678.569 L532.573,690.341 L537.306,690.341 C537.306,690.341 541.261,690.355 541.261,687.019 L541.261,687.019 Z M536.884,685.305 C539.164,685.293 539.099,686.848 539.099,686.848 C539.099,688.627 536.884,688.522 536.884,688.522 L534.669,688.522 L534.669,685.305 L536.884,685.305 L536.884,685.305 Z M989.292,689.045 L989.063,689.045 L989.063,687.886 L989.057,687.886 L988.601,689.045 L988.457,689.045 L988.001,687.886 L987.995,687.886 L987.995,689.045 L987.765,689.045 L987.765,687.656 L988.119,687.656 L988.535,688.712 L988.942,687.656 L989.292,687.656 L989.292,689.045 Z M987.482,687.842 L987.048,687.842 L987.048,689.045 L986.818,689.045 L986.818,687.842 L986.384,687.842 L986.384,687.656 L987.482,687.656 L987.482,687.842 Z M895.563,687.48 C895.563,688.704 896.172,689.045 897.527,689.045 L902.472,689.045 C903.963,689.045 904.455,688.642 904.455,687.077 L904.455,685.931 C904.455,684.367 903.963,683.963 902.472,683.963 L897.524,683.963 L897.524,682.15 L902.718,682.15 L902.718,682.915 L904.347,682.914 L904.347,682.543 C904.347,681.107 903.793,680.72 902.38,680.72 L897.877,680.72 C896.387,680.72 895.911,681.123 895.911,682.688 L895.911,683.608 C895.911,685.173 896.387,685.576 897.877,685.576 L902.825,685.576 L902.825,687.48 L895.563,687.48 Z M946.547,682.14 L951.739,682.14 L951.739,680.72 L944.703,680.72 L944.703,689.045 L951.816,689.045 L951.816,687.48 L946.547,687.48 L946.547,682.14 Z M937.225,684.479 L940.512,684.479 C941.08,684.479 941.341,684.367 941.341,683.818 L941.341,682.818 C941.341,682.269 941.08,682.156 940.512,682.156 L937.225,682.156 L937.225,684.479 Z M941.341,685.899 L940.63,685.899 L943.811,689.045 L941.31,689.045 L938.449,685.899 L937.225,685.899 L937.225,689.045 L935.411,689.045 L935.411,680.72 L941.341,680.72 C942.556,680.72 943.125,681.171 943.125,682.333 L943.125,684.286 C943.125,685.447 942.556,685.899 941.341,685.899 L941.341,685.899 Z M927.812,685.722 L931.081,685.722 L929.475,682.333 L927.812,685.722 Z M928.694,680.72 L930.372,680.72 L934.655,689.045 L932.702,689.045 L931.805,687.222 L927.074,687.222 L926.206,689.045 L924.47,689.045 L928.694,680.72 Z M922.163,687.48 L917.769,687.48 L917.769,680.72 L915.925,680.72 L915.925,687.077 C915.925,688.642 916.402,689.045 917.892,689.045 L922.04,689.045 C923.531,689.045 924.007,688.642 924.007,687.077 L924.007,680.72 L922.163,680.72 L922.163,687.48 Z M912.624,687.48 L912.624,682.148 L907.616,682.148 L907.616,687.48 L909.245,687.48 L909.245,686.588 L910.996,686.588 L910.996,687.48 L912.624,687.48 Z M912.501,680.72 C913.992,680.72 914.468,681.123 914.468,682.688 L914.468,687.077 C914.468,688.642 913.992,689.045 912.501,689.045 L910.996,689.045 L910.996,690.185 L909.245,690.185 L909.245,689.045 L907.739,689.045 C906.249,689.045 905.772,688.642 905.772,687.077 L905.772,682.688 C905.772,681.123 906.249,680.72 907.739,680.72 L912.501,680.72 Z M948.072,685.558 L951.059,685.558 L951.059,683.995 L948.072,683.995 L948.072,685.558 Z M981.959,684.544 L985.247,680.72 L983.231,680.72 L980.937,683.544 L978.525,680.72 L976.201,680.72 L979.84,684.77 L976.26,689.045 L978.334,689.045 L980.877,685.818 L983.639,689.045 L986.022,689.045 L981.959,684.544 Z M973.386,689.046 L975.231,689.046 L975.231,680.72 L973.386,680.72 L973.386,689.046 Z M970.201,685.092 C970.201,685.35 970.232,685.835 970.278,686.528 C970.001,686.19 965.302,680.72 965.302,680.72 L964.042,680.72 L964.042,689.045 L965.702,689.045 L965.702,684.544 C965.702,684.302 965.686,683.866 965.625,683.221 C965.84,683.479 970.601,689.045 970.601,689.045 L971.861,689.045 L971.861,680.72 L970.201,680.72 L970.201,685.092 Z M957.415,682.14 L962.607,682.14 L962.607,680.72 L955.571,680.72 L955.571,689.045 L962.684,689.045 L962.684,687.48 L957.415,687.48 L957.415,682.14 Z M958.939,685.558 L961.926,685.558 L961.926,683.995 L958.939,683.995 L958.939,685.558 Z" id="Partner-Logos"></path>
        </g>
    </g>
</svg>