<svg xmlns="http://www.w3.org/2000/svg" width="342" height="172" viewBox="0 0 342 172">
  <g fill="none" fill-rule="evenodd" transform="translate(62 2)">
    <polyline stroke="#81879D" stroke-width="2.396" points="118.303 26.901 118.303 .339 198.781 9.296 198.781 125.243"/>
    <path stroke="#81879D" stroke-width="1.198" d="M155.1767,3.5354 L155.1767,117.2374"/>
    <g transform="translate(0 16.397)">
      <polyline stroke="#81879D" stroke-width="2.396" points="217.806 112.695 154.718 101.025 154.718 87.546 127.424 96.644"/>
      <g transform="translate(3 85)">
        <path fill="#F2F2F6" d="M25.5616,18.7743 C28.4106,12.0153 27.8726,10.5203 27.9206,8.3943 C27.9686,6.2673 28.5256,4.3723 26.1926,2.0813 C26.1926,2.0813 24.9576,-0.0927 23.1656,0.4723 C21.3736,1.0373 17.9986,1.0343 16.1026,1.3223 C14.2076,1.6093 9.8136,3.6743 9.3966,4.2523 C7.9046,5.3373 6.5626,7.1043 6.5626,7.1043 C6.5626,7.1043 2.1936,6.4183 1.3956,7.6663 C-0.1734,9.6283 1.0176,13.8733 2.8756,14.1113"/>
        <path stroke="#81879D" stroke-width="2.396" d="M25.5616,18.7743 C28.4106,12.0153 27.8726,10.5203 27.9206,8.3943 C27.9686,6.2673 28.5256,4.3723 26.1926,2.0813 C26.1926,2.0813 24.9576,-0.0927 23.1656,0.4723 C21.3736,1.0373 17.9986,1.0343 16.1026,1.3223 C14.2076,1.6093 9.8136,3.6743 9.3966,4.2523 C7.9046,5.3373 6.5626,7.1043 6.5626,7.1043 C6.5626,7.1043 2.1936,6.4183 1.3956,7.6663 C-0.1734,9.6283 1.0176,13.8733 2.8756,14.1113"/>
      </g>
      <path fill="#81879D" d="M16.8239,92.9686 C17.2479,94.1026 18.5339,94.6686 19.6959,94.2346 C20.8569,93.7996 21.4559,92.5286 21.0319,91.3946 C20.6079,90.2616 19.3219,89.6946 18.1599,90.1296 C16.9979,90.5636 16.3999,91.8346 16.8239,92.9686"/>
      <path fill="#F2F2F6" d="M6.9722,98.0872 C6.9722,98.0872 7.0732,102.4332 6.9722,107.0822 C1.7162,114.4602 2.6262,136.8982 2.6262,136.8982 C2.6262,136.8982 -0.8098,139.5262 1.9182,142.2552 C4.6472,144.9842 22.4872,151.7802 22.4872,151.7802 L28.8032,147.4092 L25.0642,145.1862 C25.0642,145.1862 29.1682,140.7392 32.2202,140.9412 C41.7402,141.1432 33.9582,136.5952 33.9582,136.5952 L34.0592,132.0472 L33.9582,122.8492 C33.9582,122.8492 37.6972,121.1312 36.4852,118.0992 C35.2722,115.0672 28.1972,101.0182 28.1972,101.0182 L6.9722,98.0872 Z"/>
      <path stroke="#81879D" stroke-width="1.797" d="M28.3226,86.5374 L28.0916,88.9264"/>
      <path fill="#FFFFFF" d="M22.6381,105.3643 C22.6381,105.3643 18.6961,109.4073 17.8881,111.6303 C17.0791,113.8543 15.7651,124.5673 17.1801,125.1743 C22.3351,127.8023 25.7711,139.5263 23.2441,144.4783 C20.7181,149.4313 31.7341,139.9303 31.7341,139.9303 C31.7341,139.9303 33.2501,131.6423 33.1491,129.7223 C33.0481,127.8023 33.5541,123.2543 33.6551,122.2433 C33.7561,121.2323 35.2721,119.3123 35.2721,119.3123 L28.3991,102.1303 L22.6381,105.3643 Z"/>
      <path stroke="#81879D" stroke-width="2.396" d="M6.5878,99.2287 L6.8918,106.5437 C6.8918,106.5437 0.8018,119.7557 2.0998,136.0217 C2.6458,137.7787 -0.5572,139.0297 0.3658,141.0517 C1.2888,143.0747 7.0028,145.9187 7.0028,145.9187 L17.9518,149.2367 C17.9518,149.2367 21.5648,151.4747 22.4868,151.7807 C23.4088,152.0867 28.3698,149.0277 28.7338,147.6827 C29.0978,146.3377 24.8408,145.0067 24.8408,145.0067 C25.8398,144.4817 32.2198,140.9417 32.2198,140.9417 C32.2198,140.9417 36.1068,141.4367 37.4178,140.1677 C37.9498,137.8517 33.9558,136.1117 33.9558,136.1117 C33.9558,136.1117 34.4678,126.0177 34.0588,121.6147 C35.3898,120.4877 35.8668,120.1617 35.4918,117.9277 C32.9618,107.4877 28.3618,105.1067 28.6308,102.4197"/>
      <g transform="translate(21 111)">
        <path fill="#F2F2F6" d="M0.1662,1.858 L3.9552,10.255 C3.9552,10.255 2.8292,17.321 5.1842,15.171 C7.1142,14.075 8.4352,13.588 8.7142,9.066 C8.6112,5.687 6.9252,0.629 6.9252,0.629"/>
        <path stroke="#81879D" stroke-width="1.438" d="M0.1662,1.858 L3.9552,10.255 C3.9552,10.255 2.8292,17.321 5.1842,15.171 C7.1142,14.075 8.4352,13.588 8.7142,9.066 C8.6112,5.687 6.9252,0.629 6.9252,0.629"/>
      </g>
      <path stroke="#81879D" stroke-width="1.258" d="M11.7689,98.3801 C11.7689,98.3801 8.5529,101.2391 4.7569,97.2191"/>
      <path stroke="#81879D" stroke-width="1.198" d="M25.3685,104.7368 C25.3685,104.7368 28.8925,102.7738 29.3885,99.4298"/>
      <path stroke="#81879D" stroke-width="1.438" d="M19.6301,126.6826 C19.6301,126.6826 26.8091,132.6836 22.6111,145.0746"/>
      <path fill="#F2F2F6" d="M106.0782,4.6356 L111.0392,0.3286 L116.6722,8.6086 L125.7212,15.6706 L121.3802,31.4886 C121.3802,31.4886 119.6772,33.5756 136.8992,34.4196 C138.2532,34.4856 145.4232,30.5806 147.5362,32.3936 C149.9672,34.4806 148.4922,42.5346 149.2242,43.3676 C150.5922,44.9256 140.5442,46.3906 139.4312,47.5886 C137.2362,49.9526 127.9502,53.6676 127.9502,53.6676 C127.9502,53.6676 116.3782,77.4686 121.6752,78.4986 C134.2552,83.8696 123.5872,106.8226 123.5872,106.8226 C123.5872,106.8226 128.8112,108.8096 133.3722,110.9426 C137.9332,113.0766 124.2502,116.8286 124.2502,116.8286 L114.5382,112.1936 L90.9232,113.2966 C90.9232,113.2966 91.8792,118.0056 90.7762,121.4636 C89.6722,124.9206 72.9722,120.5066 72.9722,120.5066 C72.9722,120.5066 79.1522,113.5916 78.4162,112.2666 C65.3212,91.3736 74.8822,66.7556 74.8822,66.7556 C74.8822,66.7556 68.1162,54.5156 68.9262,48.6296 C70.3232,41.9346 86.2142,15.4506 86.2142,15.4506 C86.2142,15.4506 82.9772,9.8586 87.6122,3.4586 C89.6722,1.2516 96.0732,7.2836 96.0732,7.2836 L106.0782,4.6356 Z"/>
      <path stroke="#81879D" stroke-width="2.396" d="M127.93,54.5238 C135.68,50.1438 138.675,47.3888 141.745,46.9418 C151.012,45.5948 149.778,41.4078 148.653,34.3058 C147.888,28.2038 141.066,36.2688 134.669,33.4638 C127.893,32.0028 124.081,34.0118 120.196,32.0648 C122.444,30.4838 125.453,21.5598 125.942,17.6508 C126.43,13.7418 116.658,9.0998 116.658,9.0998 C116.658,9.0998 114.704,1.7708 111.039,0.5498 C107.374,-0.6722 107.863,5.4358 107.863,5.4358 C104.198,4.2138 97.847,6.1688 96.381,7.8788 C94.915,9.5888 91.983,2.2598 87.342,3.4808 C81.967,10.8108 86.853,14.2308 85.387,17.1618 C80.45,24.4018 79.022,28.6378 78.058,30.1108 C75.942,33.3418 68.774,42.0808 68.53,49.6548 C68.041,59.6708 74.882,64.8018 74.882,66.7558 C74.882,68.7108 71.217,78.2378 71.217,87.0328 C70.973,104.3788 78.791,112.9298 78.791,112.9298 C78.791,112.9298 70.485,118.7928 72.683,120.7468 C74.882,122.7018 87.342,123.9228 90.029,122.2128 C92.716,120.5028 90.517,113.6628 90.517,113.6628 L115.192,112.4408 C115.192,112.4408 119.59,116.1058 123.01,116.8378 C126.43,117.5708 133.515,115.8608 134.004,112.9298 C134.492,109.9978 123.498,107.3108 123.498,107.3108 C123.498,107.3108 134.004,81.4138 122.766,79.2158 C117.635,76.5278 127.93,54.5238 127.93,54.5238 Z"/>
      <path fill="#81879D" d="M99.5567,15.5743 C99.5567,17.6653 100.8147,19.3613 102.3657,19.3613 C103.9177,19.3613 105.1757,17.6653 105.1757,15.5743 C105.1757,13.4833 103.9177,11.7873 102.3657,11.7873 C100.8147,11.7873 99.5567,13.4833 99.5567,15.5743"/>
      <path stroke="#81879D" stroke-width="2.396" d="M74.2358,65.3325 C78.7308,69.8275 85.5568,75.2155 87.7218,82.6405 C89.2958,88.0345 95.8138,88.2595 96.9378,81.2915 C98.0618,74.3235 92.8918,57.4655 92.8918,57.4655"/>
      <path fill="#81879D" d="M110.4964 37.5378C110.5314 38.9598 111.7384 40.0838 113.1934 40.0478 114.6474 40.0128 115.7984 38.8308 115.7634 37.4088 115.7284 35.9868 114.5214 34.8628 113.0664 34.8978 111.6124 34.9338 110.4614 36.1158 110.4964 37.5378M109.3402 35.0298L101.6172 33.5808C101.6172 33.5808 100.3712 39.2828 102.8662 43.3798 105.8622 43.3088 109.0772 39.6988 109.0772 39.6988 109.0772 39.6988 107.2932 37.2248 109.3402 35.0298M116.5543 34.6468L123.0743 31.7548C123.0743 31.7548 124.8103 39.9298 123.9473 40.7078 122.8093 41.4288 117.0603 39.5668 117.0603 39.5668 117.0603 39.5668 118.6813 36.5208 116.5543 34.6468"/>
      <path stroke="#81879D" stroke-width="1.797" d="M104.6799,37.539 C101.2779,37.539 85.5309,37.917 80.2389,26.83"/>
      <path stroke="#81879D" stroke-width="1.198" d="M124.5853 20.4053C124.5853 20.4053 120.4283 21.7913 118.9163 20.7833M92.1587 112.7273C90.0657 112.9303 84.8027 112.4263 84.8027 112.4263M112.2769 112.2547C112.2769 112.2547 117.2569 111.0357 119.5939 109.2817M117.6823 10.2836C117.6823 10.2836 112.5853 7.5586 108.2083 6.1796"/>
      <path fill="#F2F2F6" d="M119.9097 29.7668C119.8297 30.0078 117.7217 33.5958 117.7217 33.5958L114.6427 32.0718 117.2907 28.8618 119.9097 29.7668zM102.631 138.6343C102.543 138.2843 102.719 96.7623 102.719 96.7623 102.719 96.7623 95.848 84.8153 105.171 86.2503 115.42 87.8273 107.712 96.5863 107.712 96.5863L107.424 139.6783 102.631 138.6343z"/>
      <path stroke="#81879D" stroke-width="1.797" d="M52.3276 87.1479L52.3276 124.4119C52.3276 125.0279 55.0706 126.6969 56.5336 124.4119L56.5336 87.5139M59.7065 81.6348C59.7065 84.5488 57.3445 86.9108 54.4305 86.9108 51.5165 86.9108 49.1545 84.5488 49.1545 81.6348 49.1545 78.7208 51.5165 76.3588 54.4305 76.3588 57.3445 76.3588 59.7065 78.7208 59.7065 81.6348z"/>
      <path stroke="#81879D" stroke-width="1.797" d="M56.156 119.0252C61.142 119.5692 64.945 122.4312 64.945 125.8812 64.945 129.7182 60.238 132.8302 54.431 132.8302 48.623 132.8302 43.916 129.7182 43.916 125.8812 43.916 122.6612 47.229 119.9532 51.724 119.1642M103.2181 97.326L103.2181 139.679C103.2181 140.295 105.9611 141.964 107.4241 139.679L107.4241 96.85"/>
      <path stroke="#81879D" stroke-width="1.797" d="M110.5969 91.8129C110.5969 94.7269 108.2349 97.0889 105.3209 97.0889 102.4069 97.0889 100.0449 94.7269 100.0449 91.8129 100.0449 88.8989 102.4069 86.5369 105.3209 86.5369 108.2349 86.5369 110.5969 88.8989 110.5969 91.8129zM107.0465 134.2923C112.0325 134.8363 115.8355 137.6983 115.8355 141.1483 115.8355 144.9853 111.1285 148.0973 105.3215 148.0973 99.5135 148.0973 94.8065 144.9853 94.8065 141.1483 94.8065 137.9283 98.1195 135.2203 102.6145 134.4313"/>
      <path stroke="#81879D" stroke-width="2.396" d="M55.8927,87.5582 C55.8927,87.5582 68.5627,153.8842 86.4717,78.9902"/>
      <path stroke="#81879D" stroke-width="1.2" d="M126.9147 55.1727C126.9147 55.1727 129.7917 49.6317 129.2497 47.1047M139.4315 47.5891C139.4315 47.5891 140.2645 45.1181 140.2645 42.9511"/>
    </g>
  </g>
</svg>
