<svg xmlns="http://www.w3.org/2000/svg" width="342" height="172" viewBox="0 0 342 172" xmlns:xlink="http://www.w3.org/1999/xlink">
  <defs>
    <polygon id="a" points="0 100.689 238.855 100.689 238.855 0 0 0"/>
  </defs>
  <g fill="none" fill-rule="evenodd" transform="translate(52 36)">
    <path fill="#81879D" d="M14.481,54.4751 L23.454,47.0581 L23.454,64.9541 L14.481,64.9541 L14.481,54.4751 Z M14.481,22.7121 L84.745,22.7121 L84.745,35.3001 L74.937,30.3851 L64.404,41.9331 L54.889,45.3251 L45.362,37.9081 L44.088,39.2581 L43.884,39.2581 L43.884,39.4751 L34.109,49.8361 L23.971,44.2111 L14.481,52.0571 L14.481,22.7121 Z M84.745,64.9541 L75.772,64.9541 L75.772,32.8881 L84.745,37.3861 L84.745,64.9541 Z M74.53,64.9541 L65.557,64.9541 L65.557,43.4331 L74.53,33.5981 L74.53,64.9541 Z M64.314,64.9541 L55.342,64.9541 L55.342,47.1431 L64.314,43.9431 L64.314,64.9541 Z M54.099,64.9541 L45.127,64.9541 L45.127,40.8721 L45.554,40.4201 L54.099,47.0721 L54.099,64.9541 Z M43.884,64.9541 L34.911,64.9541 L34.911,51.7021 L43.884,42.1891 L43.884,64.9541 Z M33.669,64.9541 L24.696,64.9541 L24.696,46.7451 L33.669,51.7231 L33.669,64.9541 Z M13.239,66.1961 L85.988,66.1961 L85.988,21.4691 L13.239,21.4691 L13.239,66.1961 Z"/>
    <path fill="#81879D" d="M0,78.6613 L0,78.1453 L0.731,77.4173 L8.685,69.4923 C8.673,69.3413 8.667,69.1813 8.667,69.0143 L8.667,21.7823 C8.667,18.8053 10.96,16.4733 13.886,16.4733 L49.635,16.4733 L85.37,16.4733 C88.296,16.4733 90.589,18.8053 90.589,21.7823 L90.589,68.6523 L90.695,68.6523 L90.695,69.6163 L98.525,77.4173 L99.256,78.1453 L99.256,79.1773 L99.256,81.9663 L99.256,82.3253 L99.154,82.6693 C98.347,85.4073 92.673,85.7323 92.617,85.7323 L49.635,85.7323 L6.639,85.7323 C6.583,85.7323 0.91,85.4073 0.102,82.6693 L0,82.3253 L0,82.1458 L0,78.6613 Z M96.771,81.9663 C96.675,82.2903 94.25,83.2473 92.617,83.2473 L49.635,83.2473 L49.621,83.2473 L6.639,83.2473 C5.006,83.2473 2.581,82.2903 2.485,81.9663 L2.485,79.1773 L11.178,70.5153 L13.602,70.5153 L7.263,77.5223 L91.552,77.5223 L85.704,70.5153 L88.078,70.5153 L96.771,79.1773 L96.771,81.9663 Z M84.086,70.5153 L88.897,76.2803 L10.063,76.2803 L15.28,70.5153 L84.086,70.5153 Z M11.152,21.7823 C11.152,20.2763 12.218,18.9583 13.886,18.9583 L49.621,18.9583 L49.635,18.9583 L85.37,18.9583 C87.038,18.9583 88.104,20.2763 88.104,21.7823 L88.104,68.6523 L11.152,68.6523 L11.152,21.7823 Z"/>
    <path stroke="#81879D" stroke-width="2.057" d="M112.0877,46.0054 L112.0877,42.6634 C112.0877,40.0964 115.4557,39.0274 115.4557,37.4594 C115.4557,35.8914 115.6727,34.4654 119.2587,34.4654 L119.4027,34.4654 C122.9877,34.4654 123.2057,35.8914 123.2057,37.4594 C123.2057,39.0274 126.5737,40.0964 126.5737,42.6634 L126.5737,46.0054 L127.9547,46.0054 C128.3467,46.0054 128.6667,46.3264 128.6667,46.7184 L128.6667,49.4944 C128.6667,49.8864 128.3467,50.2064 127.9547,50.2064 L110.7067,50.2064 C110.3147,50.2064 109.9937,49.8864 109.9937,49.4944 L109.9937,46.7184 C109.9937,46.3264 110.3147,46.0054 110.7067,46.0054 L112.0867,46.0054 L112.0877,46.0054 Z"/>
    <path stroke="#81879D" stroke-width="1.469" d="M119.5406,34.3954 L119.5406,7.5384 C119.5406,3.4794 118.0756,0.7344 112.7376,0.7344 L57.6736,0.7344 C52.6006,0.7344 49.0866,3.4404 49.0866,9.3224 L49.0866,17.6564"/>
    <mask id="b" fill="white">
      <use xlink:href="#a"/>
    </mask>
    <path fill="#81879D" d="M154.307,64.727 L224.117,64.727 L224.117,22.939 L154.307,22.939 L154.307,64.727 Z M152.837,66.196 L225.586,66.196 L225.586,21.47 L152.837,21.47 L152.837,66.196 Z" mask="url(#b)"/>
    <path fill="#81879D" d="M236.3697,81.9663 C236.2737,82.2903 233.8487,83.2473 232.2157,83.2473 L189.2337,83.2473 L189.2197,83.2473 L146.2377,83.2473 C144.6047,83.2473 142.1797,82.2903 142.0837,81.9663 L142.0837,79.1773 L150.7767,70.5153 L153.2007,70.5153 L146.8617,77.5223 L231.1507,77.5223 L225.3027,70.5153 L227.6767,70.5153 L236.3697,79.1773 L236.3697,81.9663 Z M223.6847,70.5153 L228.4957,76.2803 L149.6617,76.2803 L154.8787,70.5153 L223.6847,70.5153 Z M150.7507,21.7823 C150.7507,20.2763 151.8167,18.9583 153.4847,18.9583 L189.2197,18.9583 L189.2337,18.9583 L224.9687,18.9583 C226.6367,18.9583 227.7027,20.2763 227.7027,21.7823 L227.7027,68.6523 L150.7507,68.6523 L150.7507,21.7823 Z M148.2657,69.0143 C148.2657,69.1813 148.2717,69.3413 148.2837,69.4923 L140.3297,77.4173 L139.5987,78.1453 L139.5987,79.1773 L139.5987,81.9663 L139.5987,82.3253 L139.7007,82.6693 C140.5087,85.4073 146.1817,85.7323 146.2377,85.7323 L189.2337,85.7323 L232.2157,85.7323 C232.2717,85.7323 237.9457,85.4073 238.7527,82.6693 L238.8547,82.3253 L238.8547,81.9663 L238.8547,79.1773 L238.8547,78.1453 L238.1237,77.4173 L230.2937,69.6163 L230.2937,68.6523 L230.1877,68.6523 L230.1877,21.7823 C230.1877,18.8053 227.8947,16.4733 224.9687,16.4733 L189.2337,16.4733 L153.4847,16.4733 C150.5587,16.4733 148.2657,18.8053 148.2657,21.7823 L148.2657,69.0143 Z" mask="url(#b)"/>
    <path stroke="#81879D" stroke-width="1.469" d="M119.3784,64.8244 L119.3784,93.1514 C119.3784,97.2094 120.8434,99.9544 126.1814,99.9544 L182.7144,99.9544 C187.7874,99.9544 191.3014,97.2484 191.3014,91.3674 L191.3014,84.5024" mask="url(#b)"/>
    <path stroke="#81879D" stroke-width="1.175" d="M128.2858,46.4684 L110.3378,46.4684" mask="url(#b)"/>
    <path stroke="#81879D" stroke-width="2.057" d="M112.04,54.3708 L112.04,62.2998 C112.04,64.8198 113.775,64.8198 114.56,64.8198 L119.283,64.8198 L119.331,64.8198 L124.053,64.8198 C125.084,64.8198 126.574,64.1488 126.574,62.2998 L126.574,54.3708 L127.955,54.3708 C128.346,54.3708 128.667,54.0498 128.667,53.6578 L128.667,50.8648 C128.667,50.4728 128.346,50.1528 127.955,50.1528 L110.707,50.1528 C110.315,50.1528 109.994,50.4728 109.994,50.8648 L109.994,53.6578 C109.994,54.0498 110.315,54.3708 110.707,54.3708 L112.04,54.3708 Z" mask="url(#b)"/>
    <g transform="translate(110 53.689)" mask="url(#b)">
      <path fill="#FCFDFD" d="M18.4039,0.2152 L0.4559,0.2152"/>
      <path stroke="#81879D" stroke-width="1.175" d="M18.4039,0.2152 L0.4559,0.2152"/>
    </g>
    <path fill="#81879D" d="M180.4672,52.4312 L197.6042,52.4312 C198.1892,52.4312 198.6632,52.9052 198.6632,53.4902 L198.6632,53.6832 C198.6632,54.2682 198.1892,54.7422 197.6042,54.7422 L180.4672,54.7422 C179.8822,54.7422 179.4082,54.2682 179.4082,53.6832 L179.4082,53.4902 C179.4082,52.9052 179.8822,52.4312 180.4672,52.4312 M180.4672,40.8782 L194.5232,40.8782 C195.1082,40.8782 195.5832,41.3522 195.5832,41.9372 L195.5832,42.1292 C195.5832,42.7142 195.1082,43.1882 194.5232,43.1882 L180.4672,43.1882 C179.8822,43.1882 179.4082,42.7142 179.4082,42.1292 L179.4082,41.9372 C179.4082,41.3522 179.8822,40.8782 180.4672,40.8782 M180.4672,48.5802 L194.5232,48.5802 C195.1082,48.5802 195.5832,49.0542 195.5832,49.6392 L195.5832,49.8322 C195.5832,50.4162 195.1082,50.8912 194.5232,50.8912 L180.4672,50.8912 C179.8822,50.8912 179.4082,50.4162 179.4082,49.8322 L179.4082,49.6392 C179.4082,49.0542 179.8822,48.5802 180.4672,48.5802 M180.4672,44.7292 L191.4432,44.7292 C192.0282,44.7292 192.5022,45.2032 192.5022,45.7882 L192.5022,45.9802 C192.5022,46.5652 192.0282,47.0392 191.4432,47.0392 L180.4672,47.0392 C179.8822,47.0392 179.4082,46.5652 179.4082,45.9802 L179.4082,45.7882 C179.4082,45.2032 179.8822,44.7292 180.4672,44.7292 M180.4672,37.0272 L197.6042,37.0272 C198.1892,37.0272 198.6632,37.5012 198.6632,38.0862 L198.6632,38.2782 C198.6632,38.8632 198.1892,39.3372 197.6042,39.3372 L180.4672,39.3372 C179.8822,39.3372 179.4082,38.8632 179.4082,38.2782 L179.4082,38.0862 C179.4082,37.5012 179.8822,37.0272 180.4672,37.0272 M180.4672,33.1762 L194.5232,33.1762 C195.1082,33.1762 195.5832,33.6502 195.5832,34.2352 L195.5832,34.4272 C195.5832,35.0122 195.1082,35.4862 194.5232,35.4862 L180.4672,35.4862 C179.8822,35.4862 179.4082,35.0122 179.4082,34.4272 L179.4082,34.2352 C179.4082,33.6502 179.8822,33.1762 180.4672,33.1762" mask="url(#b)"/>
  </g>
</svg>
